<?xml version="1.0" encoding="utf-8"?>
<!-- Generator: Adobe Illustrator 23.0.3, SVG Export Plug-In . SVG Version: 6.00 Build 0)  -->
<svg version="1.1" id="Layer_1" xmlns="http://www.w3.org/2000/svg" xmlns:xlink="http://www.w3.org/1999/xlink" x="0px" y="0px"
	 viewBox="0 0 81 67" style="enable-background:new 0 0 81 67;" xml:space="preserve">
<style type="text/css">
	.st0{fill:#FFFFFF;stroke:#000000;stroke-miterlimit:10;}
	.st1{fill:url(#SVGID_1_);}
	.st2{enable-background:new    ;}
	.st3{clip-path:url(#SVGID_3_);enable-background:new    ;}
	.st4{fill:#006B63;}
	.st5{fill:#00665E;}
	.st6{fill:#00615A;}
	.st7{fill:#005C55;}
	.st8{fill:#005750;}
	.st9{fill:#00524C;}
	.st10{fill:#004D47;}
	.st11{fill:#004742;}
	.st12{fill:#00423D;}
	.st13{fill:#003D39;}
	.st14{fill:#005B54;}
	.st15{clip-path:url(#SVGID_5_);enable-background:new    ;}
	.st16{fill:#00B0B8;}
	.st17{fill:#00ADB6;}
	.st18{fill:#00ABB4;}
	.st19{fill:#00A8B2;}
	.st20{fill:#00A5B1;}
	.st21{fill:#00A3AF;}
	.st22{fill:#00A0AD;}
	.st23{fill:#009DAB;}
	.st24{fill:#009AA9;}
	.st25{fill:#0098A8;}
	.st26{clip-path:url(#SVGID_7_);enable-background:new    ;}
	.st27{clip-path:url(#SVGID_9_);enable-background:new    ;}
	.st28{fill:#007068;}
	.st29{fill:#00756D;}
	.st30{fill:#007A71;}
	.st31{clip-path:url(#SVGID_11_);enable-background:new    ;}
	.st32{clip-path:url(#SVGID_13_);enable-background:new    ;}
	.st33{clip-path:url(#SVGID_15_);enable-background:new    ;}
	.st34{clip-path:url(#SVGID_17_);enable-background:new    ;}
	.st35{clip-path:url(#SVGID_19_);enable-background:new    ;}
	.st36{fill:#00B8BD;}
	.st37{fill:#00B6BB;}
	.st38{fill:#00B3BA;}
	.st39{fill:#00302C;}
	.st40{clip-path:url(#SVGID_21_);enable-background:new    ;}
	.st41{clip-path:url(#SVGID_23_);enable-background:new    ;}
	.st42{clip-path:url(#SVGID_25_);enable-background:new    ;}
	.st43{clip-path:url(#SVGID_27_);enable-background:new    ;}
	.st44{clip-path:url(#SVGID_29_);enable-background:new    ;}
	.st45{clip-path:url(#SVGID_31_);enable-background:new    ;}
	.st46{clip-path:url(#SVGID_33_);enable-background:new    ;}
	.st47{clip-path:url(#SVGID_35_);enable-background:new    ;}
	.st48{clip-path:url(#SVGID_37_);enable-background:new    ;}
	.st49{clip-path:url(#SVGID_39_);enable-background:new    ;}
	.st50{clip-path:url(#SVGID_41_);enable-background:new    ;}
	.st51{clip-path:url(#SVGID_43_);enable-background:new    ;}
	.st52{fill:#7DF3F6;}
	.st53{fill:#82F2F7;}
	.st54{fill:#86F2F7;}
	.st55{fill:#8AF2F8;}
	.st56{fill:#8FF1F8;}
	.st57{fill:#93F1F8;}
	.st58{fill:#97F0F9;}
	.st59{fill:#0099A9;}
	.st60{fill:#00403B;}
	.st61{clip-path:url(#SVGID_45_);enable-background:new    ;}
	.st62{clip-path:url(#SVGID_47_);enable-background:new    ;}
	.st63{clip-path:url(#SVGID_49_);enable-background:new    ;}
	.st64{fill:#79F3F6;}
	.st65{fill:#75F4F6;}
	.st66{fill:#70F4F5;}
	.st67{clip-path:url(#SVGID_51_);enable-background:new    ;}
	.st68{clip-path:url(#SVGID_53_);enable-background:new    ;}
	.st69{fill:#8BF1F8;}
	.st70{clip-path:url(#SVGID_55_);enable-background:new    ;}
	.st71{clip-path:url(#SVGID_57_);enable-background:new    ;}
	.st72{clip-path:url(#SVGID_59_);enable-background:new    ;}
	.st73{clip-path:url(#SVGID_61_);enable-background:new    ;}
	.st74{clip-path:url(#SVGID_63_);enable-background:new    ;}
	.st75{clip-path:url(#SVGID_65_);enable-background:new    ;}
	.st76{clip-path:url(#SVGID_67_);enable-background:new    ;}
	.st77{clip-path:url(#SVGID_69_);enable-background:new    ;}
	.st78{clip-path:url(#SVGID_71_);enable-background:new    ;}
	.st79{clip-path:url(#SVGID_73_);enable-background:new    ;}
	.st80{clip-path:url(#SVGID_75_);enable-background:new    ;}
	.st81{clip-path:url(#SVGID_77_);enable-background:new    ;}
	.st82{clip-path:url(#SVGID_79_);enable-background:new    ;}
	.st83{clip-path:url(#SVGID_81_);enable-background:new    ;}
	.st84{clip-path:url(#SVGID_83_);enable-background:new    ;}
	.st85{fill:#6CFFE7;}
	.st86{fill:#70FFE7;}
	.st87{fill:#74FFE7;}
	.st88{fill:#78FFE7;}
	.st89{fill:#7BFFE7;}
	.st90{fill:#7FFFE7;}
	.st91{fill:#83FFE6;}
	.st92{fill:#87FFE6;}
	.st93{fill:#8AFFE6;}
	.st94{fill:#8EFFE6;}
	.st95{fill:#69FFE8;}
	.st96{fill:#65FFE8;}
	.st97{fill:#61FFE8;}
	.st98{clip-path:url(#SVGID_85_);enable-background:new    ;}
	.st99{clip-path:url(#SVGID_87_);enable-background:new    ;}
	.st100{clip-path:url(#SVGID_89_);enable-background:new    ;}
	.st101{clip-path:url(#SVGID_91_);enable-background:new    ;}
	.st102{clip-path:url(#SVGID_93_);enable-background:new    ;}
	.st103{clip-path:url(#SVGID_95_);enable-background:new    ;}
	.st104{fill:#A2EFF9;}
	.st105{fill:#AFEEFB;}
	.st106{clip-path:url(#SVGID_97_);enable-background:new    ;}
	.st107{fill:#9CF0F9;}
	.st108{fill:#A0EFF9;}
	.st109{fill:#A4EFFA;}
	.st110{clip-path:url(#SVGID_99_);enable-background:new    ;}
	.st111{clip-path:url(#SVGID_101_);enable-background:new    ;}
	.st112{clip-path:url(#SVGID_103_);enable-background:new    ;}
	.st113{fill:#98FFE6;}
	.st114{clip-path:url(#SVGID_105_);enable-background:new    ;}
	.st115{clip-path:url(#SVGID_107_);enable-background:new    ;}
	.st116{fill:#0091A3;}
	.st117{clip-path:url(#SVGID_109_);enable-background:new    ;}
	.st118{clip-path:url(#SVGID_111_);enable-background:new    ;}
</style>
<path class="st0" d="M-5,92.67"/>
<linearGradient id="SVGID_1_" gradientUnits="userSpaceOnUse" x1="8.089" y1="42" x2="78.911" y2="42">
	<stop  offset="0" style="stop-color:#C7C7C7"/>
	<stop  offset="0.9992" style="stop-color:#C7C7C7"/>
</linearGradient>
<path class="st1" d="M9.85,55.94l35.85,8.74c0.8,0.2,1.65-0.05,2.22-0.66l30.36-32.15c1.21-1.28,0.59-3.4-1.13-3.82L41.3,19.32
	c-0.8-0.2-1.65,0.05-2.22,0.66L8.72,52.12C7.51,53.4,8.13,55.52,9.85,55.94z"/>
<g>
	<g>
		<g class="st2">
			<g class="st2">
				<defs>
					<path id="SVGID_2_" class="st2" d="M40.66,4.96l-0.03,4.43c-2.17-0.48-4.68-0.12-5.61,0.81l0.03-4.43
						C35.98,4.84,38.49,4.48,40.66,4.96z"/>
				</defs>
				<clipPath id="SVGID_3_">
					<use xlink:href="#SVGID_2_"  style="overflow:visible;"/>
				</clipPath>
				<g class="st3">
					<path class="st4" d="M40.66,4.96l-0.03,4.43c-0.04-0.01-0.08-0.02-0.12-0.03l0.03-4.43C40.58,4.94,40.62,4.95,40.66,4.96"/>
					<path class="st5" d="M40.54,4.93l-0.03,4.43c-0.12-0.02-0.24-0.05-0.36-0.07l0.03-4.43C40.3,4.89,40.42,4.91,40.54,4.93"/>
					<path class="st6" d="M40.18,4.87l-0.03,4.43c-0.12-0.02-0.23-0.04-0.35-0.05l0.03-4.43C39.94,4.83,40.06,4.85,40.18,4.87"/>
					<path class="st7" d="M39.83,4.82L39.8,9.24c-0.12-0.01-0.23-0.03-0.35-0.04l0.03-4.43C39.59,4.79,39.71,4.8,39.83,4.82"/>
					<path class="st8" d="M39.48,4.78l-0.03,4.43c-0.12-0.01-0.24-0.02-0.36-0.02l0.03-4.43C39.24,4.76,39.36,4.77,39.48,4.78"/>
					<path class="st9" d="M39.12,4.76l-0.03,4.43c-0.12-0.01-0.25-0.01-0.37-0.01l0.03-4.43C38.87,4.75,39,4.75,39.12,4.76"/>
					<path class="st10" d="M38.75,4.75l-0.03,4.43c-0.13,0-0.26,0-0.39,0l0.03-4.43C38.49,4.75,38.62,4.75,38.75,4.75"/>
					<path class="st11" d="M38.36,4.75l-0.03,4.43c-0.15,0-0.29,0.01-0.43,0.02l0.03-4.43C38.07,4.76,38.22,4.76,38.36,4.75"/>
					<path class="st12" d="M37.93,4.78L37.91,9.2c-0.17,0.01-0.35,0.03-0.51,0.06l0.03-4.43C37.59,4.81,37.76,4.79,37.93,4.78"/>
					<path class="st13" d="M37.42,4.83l-0.03,4.43c-0.68,0.1-1.29,0.27-1.77,0.51l0.03-4.43C36.12,5.1,36.74,4.93,37.42,4.83"/>
					<path class="st12" d="M35.65,5.34l-0.03,4.43c-0.11,0.05-0.2,0.11-0.29,0.17l0.03-4.43C35.45,5.45,35.55,5.4,35.65,5.34"/>
					<path class="st11" d="M35.36,5.51l-0.03,4.43c-0.07,0.05-0.13,0.09-0.19,0.14l0.03-4.43C35.22,5.61,35.29,5.56,35.36,5.51"/>
					<path class="st10" d="M35.16,5.66l-0.03,4.43c-0.04,0.03-0.08,0.07-0.12,0.11l0.03-4.43C35.08,5.73,35.12,5.69,35.16,5.66"/>
				</g>
			</g>
			<g>
				<polygon class="st14" points="75.87,12.75 75.85,17.17 40.64,9.38 40.66,4.96 				"/>
			</g>
			<g class="st2">
				<defs>
					<path id="SVGID_4_" class="st2" d="M47.45,13.51l0.03-4.43c0-0.1,0.04-0.19,0.13-0.28c0.35-0.35,1.27-0.49,2.06-0.32
						l-0.03,4.43c-0.79-0.18-1.71-0.03-2.06,0.32C47.49,13.32,47.45,13.42,47.45,13.51z"/>
				</defs>
				<clipPath id="SVGID_5_">
					<use xlink:href="#SVGID_4_"  style="overflow:visible;"/>
				</clipPath>
				<g class="st15">
					<path class="st16" d="M49.67,8.49l-0.03,4.43c-0.01,0-0.03-0.01-0.04-0.01l0.03-4.43C49.64,8.48,49.66,8.49,49.67,8.49"/>
					<path class="st17" d="M49.63,8.48l-0.03,4.43c-0.04-0.01-0.08-0.02-0.13-0.02l0.03-4.43C49.55,8.47,49.59,8.47,49.63,8.48"/>
					<path class="st18" d="M49.5,8.46l-0.03,4.43c-0.04-0.01-0.08-0.01-0.12-0.02l0.03-4.43C49.42,8.45,49.46,8.45,49.5,8.46"/>
					<path class="st19" d="M49.38,8.44l-0.03,4.43c-0.04-0.01-0.08-0.01-0.12-0.01l0.03-4.43C49.3,8.43,49.34,8.44,49.38,8.44"/>
					<path class="st20" d="M49.26,8.43l-0.03,4.43c-0.04,0-0.08-0.01-0.13-0.01l0.03-4.43C49.17,8.42,49.21,8.42,49.26,8.43"/>
					<path class="st21" d="M49.13,8.42l-0.03,4.43c-0.04,0-0.09,0-0.13,0L49,8.42C49.04,8.42,49.09,8.42,49.13,8.42"/>
					<path class="st22" d="M49,8.42l-0.03,4.43c-0.05,0-0.09,0-0.14,0l0.03-4.43C48.91,8.42,48.95,8.42,49,8.42"/>
					<path class="st23" d="M48.86,8.42l-0.03,4.43c-0.05,0-0.1,0-0.15,0.01l0.03-4.43C48.76,8.42,48.81,8.42,48.86,8.42"/>
					<path class="st24" d="M48.71,8.43l-0.03,4.43c-0.07,0.01-0.13,0.01-0.19,0.02l0.03-4.43C48.58,8.44,48.64,8.43,48.71,8.43"/>
					<path class="st25" d="M48.51,8.45l-0.03,4.43c-0.26,0.04-0.49,0.1-0.67,0.19l0.03-4.43C48.03,8.55,48.26,8.48,48.51,8.45"/>
					<path class="st24" d="M47.85,8.64l-0.03,4.43c-0.04,0.02-0.08,0.04-0.11,0.07l0.03-4.43C47.77,8.68,47.81,8.66,47.85,8.64"/>
					<path class="st23" d="M47.73,8.71l-0.03,4.43c-0.03,0.02-0.05,0.04-0.08,0.06l0.03-4.43C47.68,8.75,47.7,8.73,47.73,8.71"/>
					<path class="st22" d="M47.66,8.77l-0.03,4.43c-0.02,0.01-0.03,0.03-0.05,0.04c0,0-0.01,0.01-0.01,0.01l0.03-4.43
						c0,0,0.01-0.01,0.01-0.01C47.63,8.79,47.64,8.78,47.66,8.77"/>
					<path class="st21" d="M47.6,8.82l-0.03,4.43c-0.02,0.02-0.03,0.03-0.04,0.05l0.03-4.43C47.57,8.85,47.58,8.84,47.6,8.82"/>
					<path class="st20" d="M47.56,8.87l-0.03,4.43c-0.01,0.02-0.02,0.03-0.03,0.05l0.03-4.43C47.53,8.9,47.54,8.89,47.56,8.87"/>
					<path class="st19" d="M47.52,8.92l-0.03,4.43c-0.01,0.02-0.02,0.03-0.02,0.05l0.03-4.43C47.51,8.95,47.51,8.94,47.52,8.92"/>
					<path class="st18" d="M47.5,8.97l-0.03,4.43c-0.01,0.02-0.01,0.03-0.02,0.05l0.03-4.43C47.49,9.01,47.49,8.99,47.5,8.97"/>
					<path class="st17" d="M47.48,9.02l-0.03,4.43c0,0.02-0.01,0.04-0.01,0.05l0.03-4.43C47.48,9.06,47.48,9.04,47.48,9.02"/>
					<polyline class="st16" points="47.48,9.08 47.45,13.5 47.45,13.51 47.48,9.09 47.48,9.08 					"/>
				</g>
			</g>
			<g class="st2">
				<defs>
					<path id="SVGID_6_" class="st2" d="M48.45,13.52l0.03-4.43c0-0.03,0.01-0.06,0.04-0.09c0.12-0.12,0.45-0.16,0.73-0.1
						l-0.03,4.43c-0.29-0.06-0.62-0.02-0.73,0.1C48.46,13.46,48.45,13.49,48.45,13.52z"/>
				</defs>
				<clipPath id="SVGID_7_">
					<use xlink:href="#SVGID_6_"  style="overflow:visible;"/>
				</clipPath>
				<g class="st26">
					<path class="st4" d="M49.25,8.91l-0.03,4.43c-0.01,0-0.01,0-0.02,0l0.03-4.43C49.24,8.91,49.25,8.91,49.25,8.91"/>
					<path class="st5" d="M49.24,8.91l-0.03,4.43c-0.02,0-0.03-0.01-0.05-0.01l0.03-4.43C49.2,8.9,49.22,8.9,49.24,8.91"/>
					<path class="st6" d="M49.19,8.9l-0.03,4.43c-0.02,0-0.03,0-0.05-0.01l0.03-4.43C49.15,8.89,49.17,8.89,49.19,8.9"/>
					<path class="st7" d="M49.14,8.89l-0.03,4.43c-0.02,0-0.03,0-0.05,0l0.03-4.43C49.1,8.89,49.12,8.89,49.14,8.89"/>
					<path class="st8" d="M49.09,8.89l-0.03,4.43c-0.02,0-0.03,0-0.05,0l0.03-4.43C49.06,8.88,49.07,8.88,49.09,8.89"/>
					<path class="st9" d="M49.04,8.88l-0.03,4.43c-0.02,0-0.03,0-0.05,0l0.03-4.43C49.01,8.88,49.02,8.88,49.04,8.88"/>
					<path class="st10" d="M48.99,8.88l-0.03,4.43c-0.02,0-0.04,0-0.05,0l0.03-4.43C48.95,8.88,48.97,8.88,48.99,8.88"/>
					<path class="st11" d="M48.94,8.88l-0.03,4.43c-0.02,0-0.04,0-0.06,0l0.03-4.43C48.9,8.88,48.92,8.88,48.94,8.88"/>
					<path class="st12" d="M48.88,8.88l-0.03,4.43c-0.02,0-0.05,0-0.07,0.01l0.03-4.43C48.83,8.89,48.86,8.89,48.88,8.88"/>
					<path class="st13" d="M48.81,8.89l-0.03,4.43c-0.09,0.01-0.16,0.03-0.22,0.06l0.03-4.43C48.65,8.93,48.72,8.9,48.81,8.89"/>
					<path class="st12" d="M48.59,8.96l-0.03,4.43c-0.01,0.01-0.02,0.01-0.04,0.02l0.03-4.43C48.56,8.97,48.58,8.96,48.59,8.96"/>
					<path class="st11" d="M48.55,8.98l-0.03,4.43c-0.01,0.01-0.02,0.01-0.02,0.02l0.03-4.43C48.54,8.99,48.55,8.98,48.55,8.98"/>
					<path class="st10" d="M48.53,8.99l-0.03,4.43c0,0-0.01,0.01-0.01,0.01c0,0,0,0,0,0l0.03-4.43c0,0,0,0,0,0
						C48.52,9,48.53,9,48.53,8.99"/>
					<path class="st9" d="M48.51,9.01l-0.03,4.43c0,0.01-0.01,0.01-0.01,0.02l0.03-4.43C48.5,9.02,48.51,9.02,48.51,9.01"/>
					<path class="st8" d="M48.5,9.03l-0.03,4.43c0,0.01-0.01,0.01-0.01,0.02l0.03-4.43C48.49,9.04,48.5,9.03,48.5,9.03"/>
					<path class="st7" d="M48.49,9.04l-0.03,4.43c0,0.01-0.01,0.01-0.01,0.02l0.03-4.43C48.48,9.05,48.49,9.05,48.49,9.04"/>
					<path class="st6" d="M48.48,9.06l-0.03,4.43c0,0.01,0,0.01,0,0.02l0.03-4.43C48.48,9.07,48.48,9.06,48.48,9.06"/>
					<path class="st5" d="M48.48,9.07l-0.03,4.43c0,0.01,0,0.01,0,0.02l0.03-4.43C48.48,9.08,48.48,9.08,48.48,9.07"/>
					<polyline class="st4" points="48.48,9.09 48.45,13.51 48.45,13.52 48.48,9.09 48.48,9.09 					"/>
				</g>
			</g>
			<g class="st2">
				<defs>
					<path id="SVGID_8_" class="st2" d="M47.45,13.51l0.03-4.43c0,0.27,0.34,0.54,0.93,0.67l-0.03,4.43
						C47.79,14.05,47.45,13.78,47.45,13.51z"/>
				</defs>
				<clipPath id="SVGID_9_">
					<use xlink:href="#SVGID_8_"  style="overflow:visible;"/>
				</clipPath>
				<g class="st27">
					<path class="st4" d="M48.41,9.75l-0.03,4.43c-0.03-0.01-0.06-0.01-0.09-0.02l0.03-4.43C48.34,9.74,48.37,9.75,48.41,9.75"/>
					<path class="st28" d="M48.32,9.73l-0.03,4.43c-0.05-0.01-0.09-0.03-0.14-0.04l0.03-4.43C48.22,9.71,48.27,9.72,48.32,9.73"/>
					<path class="st29" d="M48.18,9.69l-0.03,4.43c-0.06-0.02-0.11-0.04-0.16-0.06l0.03-4.43C48.07,9.65,48.12,9.67,48.18,9.69"/>
					<path class="st30" d="M48.02,9.63l-0.03,4.43c-0.35-0.14-0.54-0.34-0.54-0.55l0.03-4.43C47.48,9.29,47.67,9.49,48.02,9.63"/>
				</g>
			</g>
			<g class="st2">
				<defs>
					<path id="SVGID_10_" class="st2" d="M39.76,14.32c-0.84-0.19-1.76-0.2-2.57-0.08c0.01-1.48,0.02-2.95,0.03-4.43
						c0.81-0.13,1.73-0.11,2.57,0.08C39.78,11.23,39.77,13,39.76,14.32z"/>
				</defs>
				<clipPath id="SVGID_11_">
					<use xlink:href="#SVGID_10_"  style="overflow:visible;"/>
				</clipPath>
				<g class="st31">
					<path class="st16" d="M39.78,9.9l-0.03,4.43c-0.03-0.01-0.06-0.01-0.09-0.02l0.03-4.43C39.72,9.89,39.75,9.89,39.78,9.9"/>
					<path class="st17" d="M39.69,9.88l-0.03,4.43c-0.09-0.02-0.18-0.03-0.27-0.05l0.03-4.43C39.52,9.85,39.61,9.86,39.69,9.88"/>
					<path class="st18" d="M39.43,9.83l-0.03,4.43c-0.09-0.01-0.17-0.03-0.26-0.04l0.03-4.43C39.26,9.8,39.34,9.82,39.43,9.83"/>
					<path class="st19" d="M39.17,9.79l-0.03,4.43c-0.09-0.01-0.17-0.02-0.26-0.03l0.03-4.43C39,9.77,39.08,9.78,39.17,9.79"/>
					<path class="st20" d="M38.91,9.77l-0.03,4.43c-0.09-0.01-0.18-0.01-0.27-0.02l0.03-4.43C38.73,9.75,38.82,9.76,38.91,9.77"/>
					<path class="st21" d="M38.64,9.75l-0.03,4.43c-0.09,0-0.19-0.01-0.28-0.01l0.03-4.43C38.45,9.74,38.55,9.75,38.64,9.75"/>
					<path class="st22" d="M38.36,9.74l-0.03,4.43c-0.1,0-0.2,0-0.3,0l0.03-4.43C38.16,9.74,38.26,9.74,38.36,9.74"/>
					<path class="st23" d="M38.06,9.75l-0.03,4.43c-0.11,0-0.23,0.01-0.34,0.02l0.03-4.43C37.83,9.76,37.95,9.75,38.06,9.75"/>
					<path class="st24" d="M37.72,9.76l-0.03,4.43c-0.14,0.01-0.28,0.03-0.42,0.05l0.03-4.43C37.44,9.79,37.58,9.78,37.72,9.76"/>
					<path class="st25" d="M37.3,9.81l-0.03,4.43c-0.59,0.08-1.12,0.24-1.54,0.45l0.03-4.43C36.18,10.05,36.71,9.89,37.3,9.81"/>
				</g>
			</g>
			<g class="st2">
				<defs>
					<path id="SVGID_12_" class="st2" d="M37.08,14.26c-0.82,0.14-1.52,0.42-1.91,0.82l0.03-4.43c0.4-0.4,1.1-0.68,1.91-0.82
						C37.1,11.31,37.09,12.79,37.08,14.26z"/>
				</defs>
				<clipPath id="SVGID_13_">
					<use xlink:href="#SVGID_12_"  style="overflow:visible;"/>
				</clipPath>
				<g class="st32">
					<path class="st25" d="M37.3,9.81l-0.03,4.43c-0.59,0.08-1.12,0.24-1.54,0.45l0.03-4.43C36.18,10.05,36.71,9.89,37.3,9.81"/>
					<path class="st24" d="M35.75,10.26l-0.03,4.43c-0.1,0.05-0.19,0.1-0.27,0.16l0.03-4.43C35.57,10.37,35.66,10.31,35.75,10.26"/>
					<path class="st23" d="M35.48,10.42l-0.03,4.43c-0.06,0.04-0.13,0.09-0.18,0.14l0.03-4.43C35.36,10.51,35.42,10.47,35.48,10.42"
						/>
					<path class="st22" d="M35.3,10.56l-0.03,4.43c-0.04,0.03-0.07,0.07-0.11,0.1l0.03-4.43C35.23,10.62,35.26,10.59,35.3,10.56"/>
				</g>
			</g>
			<g class="st2">
				<defs>
					<path id="SVGID_14_" class="st2" d="M39.36,10.32l-0.03,4.43c-1.23-0.27-2.69-0.03-3.26,0.54l0.03-4.43
						C36.67,10.29,38.13,10.05,39.36,10.32z"/>
				</defs>
				<clipPath id="SVGID_15_">
					<use xlink:href="#SVGID_14_"  style="overflow:visible;"/>
				</clipPath>
				<g class="st33">
					<path class="st4" d="M39.36,10.32l-0.03,4.43c-0.02,0-0.04-0.01-0.06-0.01l0.03-4.43C39.32,10.31,39.34,10.31,39.36,10.32"/>
					<path class="st5" d="M39.3,10.3l-0.03,4.43c-0.06-0.01-0.13-0.02-0.19-0.03l0.03-4.43C39.17,10.28,39.24,10.29,39.3,10.3"/>
					<path class="st6" d="M39.11,10.27l-0.03,4.43c-0.06-0.01-0.12-0.02-0.19-0.03l0.03-4.43C38.99,10.25,39.05,10.26,39.11,10.27"
						/>
					<path class="st7" d="M38.92,10.24l-0.03,4.43c-0.06-0.01-0.12-0.01-0.19-0.02l0.03-4.43C38.8,10.23,38.86,10.24,38.92,10.24"/>
					<path class="st8" d="M38.74,10.22l-0.03,4.43c-0.06-0.01-0.13-0.01-0.19-0.01l0.03-4.43C38.61,10.21,38.67,10.22,38.74,10.22"
						/>
					<path class="st9" d="M38.55,10.21l-0.03,4.43c-0.07,0-0.13,0-0.2-0.01l0.03-4.43C38.41,10.21,38.48,10.21,38.55,10.21"/>
					<path class="st10" d="M38.35,10.21l-0.03,4.43c-0.07,0-0.14,0-0.21,0l0.03-4.43C38.21,10.21,38.28,10.21,38.35,10.21"/>
					<path class="st11" d="M38.13,10.21l-0.03,4.43c-0.08,0-0.16,0.01-0.24,0.01l0.03-4.43C37.97,10.22,38.05,10.21,38.13,10.21"/>
					<path class="st12" d="M37.89,10.22l-0.03,4.43c-0.1,0.01-0.2,0.02-0.3,0.03l0.03-4.43C37.69,10.24,37.79,10.23,37.89,10.22"/>
					<path class="st13" d="M37.59,10.25l-0.03,4.43c-0.42,0.06-0.8,0.17-1.1,0.32l0.03-4.43C36.8,10.42,37.18,10.31,37.59,10.25"/>
					<path class="st12" d="M36.5,10.58L36.47,15c-0.07,0.04-0.13,0.07-0.19,0.11l0.03-4.43C36.37,10.65,36.43,10.61,36.5,10.58"/>
					<path class="st11" d="M36.31,10.69l-0.03,4.43c-0.05,0.03-0.09,0.06-0.13,0.1l0.03-4.43C36.22,10.75,36.26,10.72,36.31,10.69"
						/>
					<path class="st10" d="M36.18,10.79l-0.03,4.43c-0.03,0.02-0.05,0.05-0.08,0.07l0.03-4.43C36.12,10.83,36.15,10.81,36.18,10.79"
						/>
				</g>
			</g>
			<g>
				<polygon class="st19" points="65.31,11.95 65.28,16.37 49.65,12.92 49.67,8.49 				"/>
			</g>
			<g>
				<polygon class="st14" points="64.89,12.37 64.86,16.79 49.23,13.34 49.25,8.91 				"/>
			</g>
			<g class="st2">
				<defs>
					<path id="SVGID_16_" class="st2" d="M65.24,12.61l-0.03,4.43c0-0.1-0.13-0.19-0.35-0.24l0.03-4.43
						C65.1,12.42,65.24,12.51,65.24,12.61z"/>
				</defs>
				<clipPath id="SVGID_17_">
					<use xlink:href="#SVGID_16_"  style="overflow:visible;"/>
				</clipPath>
				<g class="st34">
					<path class="st30" d="M65.24,12.61l-0.03,4.43c0-0.07-0.07-0.14-0.2-0.19l0.03-4.43C65.16,12.47,65.24,12.54,65.24,12.61"/>
					<path class="st29" d="M65.04,12.41l-0.03,4.43c-0.02-0.01-0.04-0.02-0.06-0.02l0.03-4.43C65,12.4,65.02,12.41,65.04,12.41"/>
					<path class="st28" d="M64.98,12.39l-0.03,4.43c-0.02-0.01-0.04-0.01-0.05-0.02l0.03-4.43C64.94,12.38,64.96,12.39,64.98,12.39"
						/>
					<path class="st4" d="M64.92,12.38L64.9,16.8c-0.01,0-0.02-0.01-0.04-0.01l0.03-4.43C64.9,12.37,64.91,12.37,64.92,12.38"/>
				</g>
			</g>
			<g class="st2">
				<defs>
					<path id="SVGID_18_" class="st2" d="M66.24,12.61l-0.03,4.43c0-0.27-0.34-0.54-0.93-0.67l0.03-4.43
						C65.89,12.08,66.24,12.34,66.24,12.61z"/>
				</defs>
				<clipPath id="SVGID_19_">
					<use xlink:href="#SVGID_18_"  style="overflow:visible;"/>
				</clipPath>
				<g class="st35">
					<path class="st36" d="M66.24,12.61l-0.03,4.43c0-0.2-0.19-0.4-0.54-0.55l0.03-4.43C66.04,12.21,66.24,12.41,66.24,12.61"/>
					<path class="st37" d="M65.7,12.07l-0.03,4.43c-0.05-0.02-0.1-0.04-0.16-0.06l0.03-4.43C65.59,12.03,65.65,12.05,65.7,12.07"/>
					<path class="st38" d="M65.54,12.01l-0.03,4.43c-0.04-0.01-0.09-0.03-0.14-0.04l0.03-4.43C65.45,11.98,65.49,12,65.54,12.01"/>
					<path class="st16" d="M65.4,11.97l-0.03,4.43c-0.03-0.01-0.06-0.01-0.09-0.02l0.03-4.43C65.34,11.95,65.37,11.96,65.4,11.97"/>
				</g>
			</g>
			<g>
				<polygon class="st14" points="64.04,13.21 64.01,17.64 48.38,14.18 48.41,9.75 				"/>
			</g>
			<g>
				<path class="st39" d="M65.31,11.95c0.79,0.18,1.14,0.6,0.79,0.95s-1.27,0.49-2.06,0.32L48.41,9.75
					c-0.79-0.18-1.14-0.6-0.79-0.95c0.35-0.35,1.27-0.49,2.06-0.32L65.31,11.95z M64.47,12.79c0.29,0.06,0.61,0.02,0.73-0.09
					c0.12-0.12-0.02-0.26-0.31-0.33L49.25,8.91c-0.29-0.06-0.62-0.02-0.73,0.1c-0.12,0.12,0.03,0.26,0.31,0.32L64.47,12.79"/>
			</g>
			<g class="st2">
				<defs>
					<path id="SVGID_20_" class="st2" d="M66.24,12.61l-0.03,4.43c0,0.1-0.04,0.19-0.13,0.28c-0.35,0.35-1.27,0.49-2.06,0.32
						l0.03-4.43c0.79,0.18,1.71,0.03,2.06-0.32C66.19,12.8,66.24,12.71,66.24,12.61z"/>
				</defs>
				<clipPath id="SVGID_21_">
					<use xlink:href="#SVGID_20_"  style="overflow:visible;"/>
				</clipPath>
				<g class="st40">
					<polyline class="st4" points="66.24,12.61 66.21,17.04 66.21,17.05 66.24,12.62 66.24,12.61 					"/>
					<path class="st5" d="M66.24,12.62l-0.03,4.43c0,0.02,0,0.04-0.01,0.05l0.03-4.43C66.23,12.66,66.24,12.64,66.24,12.62"/>
					<path class="st6" d="M66.23,12.68L66.2,17.1c0,0.02-0.01,0.03-0.02,0.05l0.03-4.43C66.22,12.71,66.23,12.7,66.23,12.68"/>
					<path class="st7" d="M66.21,12.73l-0.03,4.43c-0.01,0.02-0.01,0.03-0.02,0.05l0.03-4.43C66.2,12.76,66.21,12.75,66.21,12.73"/>
					<path class="st8" d="M66.19,12.78l-0.03,4.43c-0.01,0.02-0.02,0.03-0.03,0.05l0.03-4.43C66.17,12.82,66.18,12.8,66.19,12.78"/>
					<path class="st9" d="M66.16,12.83l-0.03,4.43c-0.01,0.02-0.03,0.03-0.04,0.05l0.03-4.43C66.13,12.87,66.14,12.85,66.16,12.83"
						/>
					<path class="st10" d="M66.11,12.88l-0.03,4.43c0,0-0.01,0.01-0.01,0.01c-0.01,0.01-0.03,0.03-0.05,0.04l0.03-4.43
						c0.02-0.01,0.03-0.03,0.05-0.04C66.11,12.89,66.11,12.89,66.11,12.88"/>
					<path class="st11" d="M66.06,12.94l-0.03,4.43c-0.02,0.02-0.05,0.04-0.08,0.06l0.03-4.43C66.01,12.97,66.03,12.96,66.06,12.94"
						/>
					<path class="st12" d="M65.98,12.99l-0.03,4.43c-0.04,0.02-0.07,0.05-0.11,0.07l0.03-4.43C65.91,13.04,65.95,13.02,65.98,12.99"
						/>
					<path class="st13" d="M65.87,13.06l-0.03,4.43c-0.18,0.09-0.41,0.16-0.67,0.19l0.03-4.43C65.46,13.22,65.69,13.15,65.87,13.06"
						/>
					<path class="st12" d="M65.2,13.25l-0.03,4.43c-0.06,0.01-0.13,0.02-0.19,0.02l0.03-4.43C65.07,13.27,65.14,13.26,65.2,13.25"/>
					<path class="st11" d="M65.01,13.28l-0.03,4.43c-0.05,0-0.1,0.01-0.15,0.01l0.03-4.43C64.91,13.28,64.96,13.28,65.01,13.28"/>
					<path class="st10" d="M64.85,13.28l-0.03,4.43c-0.05,0-0.09,0-0.14,0l0.03-4.43C64.76,13.29,64.81,13.29,64.85,13.28"/>
					<path class="st9" d="M64.71,13.29l-0.03,4.43c-0.04,0-0.09,0-0.13,0l0.03-4.43C64.63,13.28,64.67,13.29,64.71,13.29"/>
					<path class="st8" d="M64.58,13.28l-0.03,4.43c-0.04,0-0.08,0-0.13-0.01l0.03-4.43C64.5,13.28,64.54,13.28,64.58,13.28"/>
					<path class="st7" d="M64.46,13.27l-0.03,4.43c-0.04,0-0.08-0.01-0.12-0.01l0.03-4.43C64.38,13.27,64.42,13.27,64.46,13.27"/>
					<path class="st6" d="M64.33,13.26l-0.03,4.43c-0.04-0.01-0.08-0.01-0.12-0.02l0.03-4.43C64.25,13.25,64.29,13.26,64.33,13.26"
						/>
					<path class="st5" d="M64.21,13.24l-0.03,4.43c-0.04-0.01-0.08-0.01-0.13-0.02l0.03-4.43C64.12,13.23,64.17,13.24,64.21,13.24"
						/>
					<path class="st4" d="M64.08,13.22l-0.03,4.43c-0.01,0-0.03-0.01-0.04-0.01l0.03-4.43C64.05,13.21,64.07,13.22,64.08,13.22"/>
				</g>
			</g>
			<g class="st2">
				<defs>
					<path id="SVGID_22_" class="st2" d="M78.46,14.57l-0.03,4.43c0-0.73-0.97-1.46-2.59-1.82l0.03-4.43
						C77.49,13.1,78.47,13.83,78.46,14.57z"/>
				</defs>
				<clipPath id="SVGID_23_">
					<use xlink:href="#SVGID_22_"  style="overflow:visible;"/>
				</clipPath>
				<g class="st41">
					<path class="st30" d="M78.46,14.57l-0.03,4.43c0-0.55-0.54-1.09-1.49-1.48l0.03-4.43C77.92,13.47,78.47,14.02,78.46,14.57"/>
					<path class="st29" d="M76.97,13.08l-0.03,4.43c-0.14-0.06-0.29-0.11-0.45-0.16l0.03-4.43C76.68,12.97,76.83,13.02,76.97,13.08"
						/>
					<path class="st28" d="M76.52,12.92l-0.03,4.43c-0.13-0.04-0.26-0.08-0.39-0.11l0.03-4.43C76.27,12.84,76.4,12.88,76.52,12.92"
						/>
					<path class="st4" d="M76.13,12.81l-0.03,4.43c-0.08-0.02-0.17-0.04-0.25-0.06l0.03-4.43C75.96,12.77,76.05,12.79,76.13,12.81"
						/>
				</g>
			</g>
			<g class="st2">
				<defs>
					<path id="SVGID_24_" class="st2" d="M78.46,14.57l-0.03,4.43c0,0.25-0.11,0.49-0.35,0.72l0.03-4.43
						C78.35,15.06,78.46,14.81,78.46,14.57z"/>
				</defs>
				<clipPath id="SVGID_25_">
					<use xlink:href="#SVGID_24_"  style="overflow:visible;"/>
				</clipPath>
				<g class="st42">
					<path class="st16" d="M78.46,14.57l-0.03,4.43c0,0.01,0,0.02,0,0.02l0.03-4.43C78.46,14.58,78.46,14.57,78.46,14.57"/>
					<path class="st17" d="M78.46,14.59l-0.03,4.43c0,0.05-0.01,0.1-0.02,0.14l0.03-4.43C78.46,14.69,78.46,14.64,78.46,14.59"/>
					<path class="st18" d="M78.45,14.73l-0.03,4.43c-0.01,0.04-0.02,0.09-0.04,0.13l0.03-4.43C78.42,14.82,78.44,14.78,78.45,14.73"
						/>
					<path class="st19" d="M78.41,14.87l-0.03,4.43c-0.02,0.04-0.04,0.09-0.06,0.13L78.34,15C78.37,14.95,78.39,14.91,78.41,14.87"
						/>
					<path class="st20" d="M78.34,15l-0.03,4.43c-0.02,0.04-0.05,0.09-0.08,0.13l0.03-4.43C78.29,15.08,78.32,15.04,78.34,15"/>
					<path class="st21" d="M78.26,15.13l-0.03,4.43c-0.03,0.04-0.07,0.09-0.11,0.13l0.03-4.43C78.19,15.21,78.23,15.17,78.26,15.13"
						/>
					<path class="st22" d="M78.15,15.26l-0.03,4.43c-0.01,0.01-0.02,0.02-0.03,0.03l0.03-4.43C78.13,15.28,78.14,15.27,78.15,15.26"
						/>
				</g>
			</g>
			<g class="st2">
				<defs>
					<path id="SVGID_26_" class="st2" d="M79.46,14.57L79.44,19c0,0.31-0.14,0.62-0.44,0.92l0.03-4.43
						C79.32,15.2,79.46,14.88,79.46,14.57z"/>
				</defs>
				<clipPath id="SVGID_27_">
					<use xlink:href="#SVGID_26_"  style="overflow:visible;"/>
				</clipPath>
				<g class="st43">
					<path class="st4" d="M79.46,14.57L79.44,19c0,0.01,0,0.02,0,0.03l0.03-4.43C79.46,14.6,79.46,14.58,79.46,14.57"/>
					<path class="st5" d="M79.46,14.61l-0.03,4.43c0,0.06-0.01,0.12-0.02,0.18l0.03-4.43C79.45,14.73,79.46,14.67,79.46,14.61"/>
					<path class="st6" d="M79.44,14.79l-0.03,4.43c-0.01,0.06-0.03,0.11-0.05,0.17l0.03-4.43C79.41,14.9,79.43,14.84,79.44,14.79"/>
					<path class="st7" d="M79.39,14.96l-0.03,4.43c-0.02,0.06-0.05,0.11-0.08,0.16l0.03-4.43C79.34,15.07,79.37,15.01,79.39,14.96"
						/>
					<path class="st8" d="M79.31,15.12l-0.03,4.43c-0.03,0.05-0.07,0.11-0.11,0.16l0.03-4.43C79.24,15.23,79.28,15.17,79.31,15.12"
						/>
					<path class="st9" d="M79.2,15.28l-0.03,4.43c-0.04,0.06-0.09,0.11-0.14,0.17l0.03-4.43C79.12,15.39,79.16,15.34,79.2,15.28"/>
					<path class="st10" d="M79.06,15.45l-0.03,4.43c-0.01,0.01-0.03,0.03-0.04,0.04l0.03-4.43C79.04,15.48,79.05,15.46,79.06,15.45"
						/>
				</g>
			</g>
			<g>
				<polygon class="st19" points="68.72,16.3 68.69,20.72 39.76,14.32 39.78,9.9 				"/>
			</g>
			<g>
				<polygon class="st14" points="68.3,16.72 68.27,21.14 39.34,14.74 39.36,10.32 				"/>
			</g>
			<g class="st2">
				<defs>
					<path id="SVGID_28_" class="st2" d="M70.46,21.62c-0.31-0.38-0.92-0.71-1.77-0.9l0.03-4.43c0.85,0.19,1.46,0.52,1.77,0.9
						C70.48,18.67,70.47,20.15,70.46,21.62z"/>
				</defs>
				<clipPath id="SVGID_29_">
					<use xlink:href="#SVGID_28_"  style="overflow:visible;"/>
				</clipPath>
				<g class="st44">
					<path class="st36" d="M70.71,17.77l-0.03,4.43c0-0.46-0.42-0.91-1.18-1.22l0.03-4.43C70.29,16.86,70.71,17.31,70.71,17.77"/>
					<path class="st37" d="M69.53,16.55l-0.03,4.43c-0.11-0.04-0.22-0.08-0.34-0.12l0.03-4.43C69.31,16.46,69.43,16.5,69.53,16.55"
						/>
					<path class="st38" d="M69.19,16.42l-0.03,4.43c-0.09-0.03-0.19-0.06-0.29-0.08l0.03-4.43C69.01,16.37,69.1,16.4,69.19,16.42"/>
					<path class="st16" d="M68.91,16.34l-0.03,4.43c-0.06-0.02-0.12-0.03-0.19-0.04l0.03-4.43C68.78,16.31,68.85,16.33,68.91,16.34"
						/>
				</g>
			</g>
			<g class="st2">
				<defs>
					<path id="SVGID_30_" class="st2" d="M70.71,17.77l-0.03,4.43c0,0.23-0.11,0.45-0.32,0.67l0.03-4.43
						C70.61,18.22,70.71,17.99,70.71,17.77z"/>
				</defs>
				<clipPath id="SVGID_31_">
					<use xlink:href="#SVGID_30_"  style="overflow:visible;"/>
				</clipPath>
				<g class="st45">
					<path class="st4" d="M70.71,17.77l-0.03,4.43c0,0.01,0,0.01,0,0.02l0.03-4.43C70.71,17.78,70.71,17.78,70.71,17.77"/>
					<path class="st5" d="M70.71,17.79l-0.03,4.43c0,0.04-0.01,0.09-0.02,0.13l0.03-4.43C70.7,17.88,70.71,17.83,70.71,17.79"/>
					<path class="st6" d="M70.69,17.92l-0.03,4.43c-0.01,0.04-0.02,0.08-0.04,0.12l0.03-4.43C70.67,18,70.69,17.96,70.69,17.92"/>
					<path class="st7" d="M70.66,18.05l-0.03,4.43c-0.02,0.04-0.03,0.08-0.06,0.12l0.03-4.43C70.62,18.13,70.64,18.09,70.66,18.05"
						/>
					<path class="st8" d="M70.6,18.17l-0.03,4.43c-0.02,0.04-0.05,0.08-0.08,0.12l0.03-4.43C70.55,18.25,70.58,18.21,70.6,18.17"/>
					<path class="st9" d="M70.52,18.29l-0.03,4.43c-0.03,0.04-0.07,0.08-0.1,0.12l0.03-4.43C70.46,18.37,70.49,18.33,70.52,18.29"/>
					<path class="st10" d="M70.42,18.41l-0.03,4.43c-0.01,0.01-0.02,0.02-0.03,0.03l0.03-4.43C70.4,18.43,70.41,18.42,70.42,18.41"
						/>
				</g>
			</g>
			<g class="st2">
				<defs>
					<path id="SVGID_32_" class="st2" d="M70.48,18.24c0-0.35,0-0.7,0.01-1.05c0.01,0.01,0.01,0.02,0.02,0.03
						c-0.01,1.48-0.02,2.95-0.03,4.43c-0.01-0.01-0.01-0.02-0.02-0.03C70.47,20.5,70.48,19.37,70.48,18.24z"/>
				</defs>
				<clipPath id="SVGID_33_">
					<use xlink:href="#SVGID_32_"  style="overflow:visible;"/>
				</clipPath>
				<g class="st46">
					<path class="st36" d="M70.71,17.77l-0.03,4.43c0-0.46-0.42-0.91-1.18-1.22l0.03-4.43C70.29,16.86,70.71,17.31,70.71,17.77"/>
				</g>
			</g>
			<g class="st2">
				<defs>
					<path id="SVGID_34_" class="st2" d="M70.49,21.58c0.01-1.45,0.02-2.9,0.03-4.35c0,0,0,0,0,0c-0.01,1.48-0.02,2.95-0.03,4.43
						c0,0,0,0,0,0C70.48,21.62,70.49,21.6,70.49,21.58z"/>
				</defs>
				<clipPath id="SVGID_35_">
					<use xlink:href="#SVGID_34_"  style="overflow:visible;"/>
				</clipPath>
				<g class="st47">
					<path class="st36" d="M70.71,17.77l-0.03,4.43c0-0.46-0.42-0.91-1.18-1.22l0.03-4.43C70.29,16.86,70.71,17.31,70.71,17.77"/>
				</g>
			</g>
			<g class="st2">
				<defs>
					<path id="SVGID_36_" class="st2" d="M70.51,21.68c-0.01-0.01-0.01-0.02-0.02-0.03c0.01-1.48,0.02-2.95,0.03-4.43
						c0.01,0.01,0.01,0.02,0.02,0.03C70.53,18.73,70.52,20.21,70.51,21.68z"/>
				</defs>
				<clipPath id="SVGID_37_">
					<use xlink:href="#SVGID_36_"  style="overflow:visible;"/>
				</clipPath>
				<g class="st48">
					<path class="st36" d="M70.71,17.77l-0.03,4.43c0-0.46-0.42-0.91-1.18-1.22l0.03-4.43C70.29,16.86,70.71,17.31,70.71,17.77"/>
				</g>
			</g>
			<g class="st2">
				<defs>
					<path id="SVGID_38_" class="st2" d="M69.71,17.76l-0.03,4.43c0-0.43-0.52-0.85-1.41-1.04l0.03-4.43
						C69.19,16.91,69.71,17.33,69.71,17.76z"/>
				</defs>
				<clipPath id="SVGID_39_">
					<use xlink:href="#SVGID_38_"  style="overflow:visible;"/>
				</clipPath>
				<g class="st49">
					<path class="st30" d="M69.71,17.76l-0.03,4.43c0-0.33-0.3-0.65-0.84-0.87l0.03-4.43C69.41,17.12,69.71,17.43,69.71,17.76"/>
					<path class="st29" d="M68.88,16.89l-0.03,4.43c-0.08-0.03-0.16-0.06-0.24-0.09l0.03-4.43C68.72,16.83,68.8,16.86,68.88,16.89"
						/>
					<path class="st28" d="M68.64,16.81l-0.03,4.43c-0.07-0.02-0.13-0.04-0.2-0.06l0.03-4.43C68.5,16.77,68.57,16.79,68.64,16.81"/>
					<path class="st4" d="M68.43,16.75l-0.03,4.43c-0.04-0.01-0.09-0.02-0.13-0.03l0.03-4.43C68.34,16.73,68.39,16.74,68.43,16.75"
						/>
				</g>
			</g>
			<g class="st2">
				<defs>
					<path id="SVGID_40_" class="st2" d="M70.68,22.19c0-0.18-0.06-0.35-0.18-0.51c0.01-1.48,0.02-2.95,0.03-4.43
						c0.12,0.16,0.18,0.34,0.18,0.51C70.7,19.1,70.69,20.87,70.68,22.19z"/>
				</defs>
				<clipPath id="SVGID_41_">
					<use xlink:href="#SVGID_40_"  style="overflow:visible;"/>
				</clipPath>
				<g class="st50">
					<path class="st36" d="M70.71,17.77l-0.03,4.43c0-0.46-0.42-0.91-1.18-1.22l0.03-4.43C70.29,16.86,70.71,17.31,70.71,17.77"/>
				</g>
			</g>
			<g class="st2">
				<defs>
					<path id="SVGID_42_" class="st2" d="M69.71,17.76l-0.03,4.43c0,0.16-0.08,0.32-0.23,0.48l0.03-4.43
						C69.64,18.09,69.71,17.92,69.71,17.76z"/>
				</defs>
				<clipPath id="SVGID_43_">
					<use xlink:href="#SVGID_42_"  style="overflow:visible;"/>
				</clipPath>
				<g class="st51">
					<path class="st52" d="M69.71,17.76l-0.03,4.43c0,0.01,0,0.01,0,0.02l0.03-4.43C69.71,17.77,69.71,17.77,69.71,17.76"/>
					<path class="st53" d="M69.71,17.78l-0.03,4.43c0,0.03,0,0.06-0.01,0.09l0.03-4.43C69.71,17.84,69.71,17.81,69.71,17.78"/>
					<path class="st54" d="M69.7,17.87l-0.03,4.43c-0.01,0.03-0.02,0.06-0.03,0.09l0.03-4.43C69.69,17.93,69.69,17.9,69.7,17.87"/>
					<path class="st55" d="M69.67,17.96l-0.03,4.43c-0.01,0.03-0.02,0.06-0.04,0.09l0.03-4.43C69.65,18.02,69.66,17.99,69.67,17.96"
						/>
					<path class="st56" d="M69.63,18.04l-0.03,4.43c-0.02,0.03-0.03,0.06-0.06,0.09l0.03-4.43C69.6,18.1,69.62,18.07,69.63,18.04"/>
					<path class="st57" d="M69.58,18.13l-0.03,4.43c-0.02,0.03-0.05,0.06-0.07,0.09l0.03-4.43C69.53,18.19,69.56,18.16,69.58,18.13"
						/>
					<path class="st58" d="M69.5,18.22l-0.03,4.43c-0.01,0.01-0.01,0.01-0.02,0.02l0.03-4.43C69.49,18.23,69.5,18.23,69.5,18.22"/>
				</g>
			</g>
			<g>
				<polygon class="st59" points="35.19,10.66 35.17,15.08 12.35,37.81 12.38,33.38 				"/>
			</g>
			<g>
				<polygon class="st60" points="36.1,10.86 36.07,15.28 13.26,38.01 13.28,33.58 				"/>
			</g>
			<g class="st2">
				<defs>
					<path id="SVGID_44_" class="st2" d="M13.03,38.48l0.03-4.43c0-0.16,0.07-0.32,0.23-0.48l-0.03,4.43
						C13.1,38.16,13.03,38.32,13.03,38.48z"/>
				</defs>
				<clipPath id="SVGID_45_">
					<use xlink:href="#SVGID_44_"  style="overflow:visible;"/>
				</clipPath>
				<g class="st61">
					<path class="st10" d="M13.28,33.58l-0.03,4.43c-0.01,0.01-0.01,0.01-0.02,0.02l0.03-4.43C13.27,33.6,13.28,33.59,13.28,33.58"
						/>
					<path class="st9" d="M13.26,33.6l-0.03,4.43c-0.03,0.03-0.05,0.06-0.07,0.09l0.03-4.43C13.21,33.66,13.24,33.63,13.26,33.6"/>
					<path class="st8" d="M13.19,33.69l-0.03,4.43c-0.02,0.03-0.04,0.06-0.06,0.09l0.03-4.43C13.15,33.75,13.17,33.72,13.19,33.69"
						/>
					<path class="st7" d="M13.13,33.78l-0.03,4.43c-0.02,0.03-0.03,0.06-0.04,0.09l0.03-4.43C13.11,33.83,13.12,33.81,13.13,33.78"
						/>
					<path class="st6" d="M13.09,33.86l-0.03,4.43c-0.01,0.03-0.02,0.06-0.03,0.09l0.03-4.43C13.07,33.92,13.08,33.89,13.09,33.86"
						/>
					<path class="st5" d="M13.07,33.95l-0.03,4.43c-0.01,0.03-0.01,0.06-0.01,0.09l0.03-4.43C13.06,34.01,13.06,33.98,13.07,33.95"
						/>
					<path class="st4" d="M13.06,34.04l-0.03,4.43c0,0.01,0,0.01,0,0.02l0.03-4.43C13.06,34.05,13.06,34.05,13.06,34.04"/>
				</g>
			</g>
			<g class="st2">
				<defs>
					<path id="SVGID_46_" class="st2" d="M12.35,37.81c-0.22,0.22-0.32,0.45-0.32,0.67l0.03-4.43c0-0.23,0.11-0.45,0.32-0.67
						C12.37,34.71,12.87,36.58,12.35,37.81z"/>
				</defs>
				<clipPath id="SVGID_47_">
					<use xlink:href="#SVGID_46_"  style="overflow:visible;"/>
				</clipPath>
				<g class="st62">
					<path class="st22" d="M12.38,33.38l-0.03,4.43c-0.01,0.01-0.02,0.02-0.03,0.03l0.03-4.43C12.36,33.4,12.37,33.39,12.38,33.38"
						/>
					<path class="st21" d="M12.35,33.41l-0.03,4.43c-0.04,0.04-0.07,0.08-0.1,0.12l0.03-4.43C12.28,33.49,12.31,33.45,12.35,33.41"
						/>
					<path class="st20" d="M12.25,33.54l-0.03,4.43c-0.03,0.04-0.06,0.08-0.08,0.12l0.03-4.43C12.19,33.62,12.22,33.58,12.25,33.54"
						/>
					<path class="st19" d="M12.17,33.66l-0.03,4.43c-0.02,0.04-0.04,0.08-0.06,0.12l0.03-4.43C12.13,33.74,12.14,33.7,12.17,33.66"
						/>
					<path class="st18" d="M12.11,33.78l-0.03,4.43c-0.02,0.04-0.03,0.08-0.04,0.12l0.03-4.43C12.08,33.86,12.09,33.82,12.11,33.78"
						/>
					<path class="st17" d="M12.07,33.9l-0.03,4.43c-0.01,0.04-0.01,0.09-0.02,0.13l0.03-4.43C12.06,33.99,12.06,33.95,12.07,33.9"/>
					<path class="st16" d="M12.06,34.03l-0.03,4.43c0,0.01,0,0.01,0,0.02l0.03-4.43C12.06,34.05,12.06,34.04,12.06,34.03"/>
				</g>
			</g>
			<g class="st2">
				<defs>
					<path id="SVGID_48_" class="st2" d="M14.45,39.53c-0.9-0.2-1.42-0.62-1.42-1.05l0.03-4.43c0,0.43,0.52,0.85,1.42,1.05
						C14.47,36.44,14.46,38.21,14.45,39.53z"/>
				</defs>
				<clipPath id="SVGID_49_">
					<use xlink:href="#SVGID_48_"  style="overflow:visible;"/>
				</clipPath>
				<g class="st63">
					<path class="st52" d="M14.48,35.11l-0.03,4.43c-0.05-0.01-0.09-0.02-0.13-0.03l0.03-4.43C14.39,35.09,14.43,35.1,14.48,35.11"
						/>
					<path class="st64" d="M14.34,35.08l-0.03,4.43c-0.07-0.02-0.14-0.04-0.21-0.06l0.03-4.43C14.2,35.04,14.27,35.06,14.34,35.08"
						/>
					<path class="st65" d="M14.14,35.02l-0.03,4.43c-0.08-0.03-0.17-0.06-0.24-0.09l0.03-4.43C13.97,34.96,14.05,34.99,14.14,35.02"
						/>
					<path class="st66" d="M13.9,34.93l-0.03,4.43c-0.54-0.22-0.84-0.54-0.84-0.87l0.03-4.43C13.05,34.39,13.36,34.71,13.9,34.93"/>
				</g>
			</g>
			<g class="st2">
				<defs>
					<path id="SVGID_50_" class="st2" d="M12.03,38.48l0.03-4.43c0,0.61,0.74,1.19,2,1.47l-0.03,4.43
						C12.77,39.67,12.03,39.09,12.03,38.48z"/>
				</defs>
				<clipPath id="SVGID_51_">
					<use xlink:href="#SVGID_50_"  style="overflow:visible;"/>
				</clipPath>
				<g class="st67">
					<path class="st4" d="M14.05,35.53l-0.03,4.43c-0.06-0.01-0.13-0.03-0.19-0.04l0.03-4.43C13.93,35.5,13.99,35.51,14.05,35.53"/>
					<path class="st28" d="M13.87,35.48l-0.03,4.43c-0.1-0.03-0.2-0.05-0.29-0.08l0.03-4.43C13.67,35.43,13.77,35.46,13.87,35.48"/>
					<path class="st29" d="M13.58,35.4l-0.03,4.43c-0.12-0.04-0.23-0.08-0.34-0.12l0.03-4.43C13.34,35.32,13.46,35.36,13.58,35.4"/>
					<path class="st30" d="M13.24,35.28l-0.03,4.43c-0.76-0.31-1.18-0.76-1.18-1.22l0.03-4.43C12.05,34.52,12.48,34.97,13.24,35.28"
						/>
				</g>
			</g>
			<g>
				<polygon class="st60" points="35.05,5.76 35.02,10.19 3.38,41.71 3.41,37.29 				"/>
			</g>
			<g class="st2">
				<defs>
					<path id="SVGID_52_" class="st2" d="M3.03,42.43l0.03-4.43c0-0.25,0.11-0.49,0.35-0.72l-0.03,4.43
						C3.15,41.94,3.04,42.19,3.03,42.43z"/>
				</defs>
				<clipPath id="SVGID_53_">
					<use xlink:href="#SVGID_52_"  style="overflow:visible;"/>
				</clipPath>
				<g class="st68">
					<path class="st10" d="M3.41,37.29l-0.03,4.43c-0.01,0.01-0.02,0.02-0.03,0.03l0.03-4.43C3.39,37.31,3.4,37.3,3.41,37.29"/>
					<path class="st9" d="M3.38,37.32l-0.03,4.43c-0.04,0.04-0.08,0.09-0.11,0.13l0.03-4.43C3.3,37.4,3.33,37.36,3.38,37.32"/>
					<path class="st8" d="M3.26,37.45l-0.03,4.43C3.21,41.92,3.18,41.96,3.15,42l0.03-4.43C3.2,37.53,3.23,37.49,3.26,37.45"/>
					<path class="st7" d="M3.18,37.58L3.15,42c-0.02,0.04-0.04,0.09-0.06,0.13l0.03-4.43C3.13,37.66,3.16,37.62,3.18,37.58"/>
					<path class="st6" d="M3.12,37.71l-0.03,4.43c-0.02,0.04-0.03,0.09-0.04,0.13l0.03-4.43C3.09,37.8,3.1,37.75,3.12,37.71"/>
					<path class="st5" d="M3.08,37.84l-0.03,4.43c-0.01,0.05-0.02,0.09-0.02,0.14l0.03-4.43C3.06,37.94,3.07,37.89,3.08,37.84"/>
					<path class="st4" d="M3.06,37.98l-0.03,4.43c0,0.01,0,0.02,0,0.02l0.03-4.43C3.06,38,3.06,37.99,3.06,37.98"/>
				</g>
			</g>
			<g>
				<polygon class="st69" points="43.41,41.51 43.39,45.93 14.45,39.53 14.48,35.11 				"/>
			</g>
			<g>
				<polygon class="st14" points="42.99,41.93 42.96,46.35 14.03,39.95 14.05,35.53 				"/>
			</g>
			<g class="st2">
				<defs>
					<path id="SVGID_54_" class="st2" d="M26.64,43.26c-0.45-0.09-0.92-0.13-1.38-0.15c0.01-1.48,0.02-2.95,0.03-4.43
						c0.46,0.01,0.93,0.06,1.38,0.15C26.66,40.31,26.65,41.78,26.64,43.26z"/>
				</defs>
				<clipPath id="SVGID_55_">
					<use xlink:href="#SVGID_54_"  style="overflow:visible;"/>
				</clipPath>
				<g class="st70">
					<path class="st17" d="M26.8,38.86l-0.03,4.43c-0.11-0.02-0.23-0.04-0.35-0.06l0.03-4.43C26.57,38.82,26.69,38.84,26.8,38.86"/>
					<path class="st18" d="M26.45,38.8l-0.03,4.43c-0.11-0.02-0.23-0.03-0.34-0.05l0.03-4.43C26.23,38.76,26.34,38.78,26.45,38.8"/>
					<path class="st19" d="M26.11,38.75l-0.03,4.43c-0.11-0.01-0.23-0.03-0.34-0.04l0.03-4.43C25.89,38.72,26,38.73,26.11,38.75"/>
					<path class="st20" d="M25.77,38.71l-0.03,4.43c-0.12-0.01-0.23-0.02-0.35-0.02l0.03-4.43C25.54,38.7,25.66,38.7,25.77,38.71"/>
					<path class="st21" d="M25.43,38.69l-0.03,4.43c-0.12-0.01-0.24-0.01-0.36-0.01l0.03-4.43C25.19,38.68,25.31,38.69,25.43,38.69"
						/>
				</g>
			</g>
			<g class="st2">
				<defs>
					<path id="SVGID_56_" class="st2" d="M22.19,42.17c0.01-1,0.01-2,0.02-2.99c0.81-0.35,1.93-0.52,3.08-0.49
						c-0.01,1.48-0.02,2.95-0.03,4.43c-1.15-0.04-2.27,0.14-3.08,0.49C22.18,43.12,22.19,42.64,22.19,42.17z"/>
				</defs>
				<clipPath id="SVGID_57_">
					<use xlink:href="#SVGID_56_"  style="overflow:visible;"/>
				</clipPath>
				<g class="st71">
					<path class="st21" d="M25.43,38.69l-0.03,4.43c-0.12-0.01-0.24-0.01-0.36-0.01l0.03-4.43C25.19,38.68,25.31,38.69,25.43,38.69"
						/>
					<path class="st22" d="M25.07,38.68l-0.03,4.43c-0.13,0-0.25,0-0.38,0l0.03-4.43C24.82,38.68,24.94,38.68,25.07,38.68"/>
					<path class="st23" d="M24.69,38.69l-0.03,4.43c-0.14,0-0.28,0.01-0.42,0.02l0.03-4.43C24.41,38.7,24.55,38.69,24.69,38.69"/>
					<path class="st24" d="M24.27,38.71l-0.03,4.43c-0.17,0.01-0.35,0.03-0.51,0.06l0.03-4.43C23.92,38.74,24.09,38.72,24.27,38.71"
						/>
					<path class="st25" d="M23.75,38.76l-0.03,4.43c-0.68,0.1-1.3,0.27-1.78,0.52l0.03-4.43C22.45,39.04,23.07,38.86,23.75,38.76"/>
				</g>
			</g>
			<g class="st2">
				<defs>
					<path id="SVGID_58_" class="st2" d="M24.39,43.26c-0.09,0.01-0.18,0.02-0.26,0.04c0.01-1.48,0.02-2.95,0.03-4.43
						c0.09-0.01,0.17-0.03,0.26-0.04C24.41,40.31,24.4,41.79,24.39,43.26z"/>
				</defs>
				<clipPath id="SVGID_59_">
					<use xlink:href="#SVGID_58_"  style="overflow:visible;"/>
				</clipPath>
				<g class="st72">
					<path class="st12" d="M24.83,38.8l-0.03,4.43c-0.16,0.01-0.33,0.03-0.48,0.05l0.03-4.43C24.5,38.83,24.66,38.81,24.83,38.8"/>
					<path class="st13" d="M24.34,38.85l-0.03,4.43c-0.68,0.1-1.31,0.27-1.79,0.53l0.03-4.43C23.04,39.12,23.66,38.94,24.34,38.85"
						/>
				</g>
			</g>
			<g class="st2">
				<defs>
					<path id="SVGID_60_" class="st2" d="M24.39,42.72c0.01-1.29,0.02-2.59,0.02-3.88c0.85-0.11,1.79-0.09,2.66,0.08l-0.03,4.43
						c-0.87-0.17-1.81-0.19-2.66-0.08C24.39,43.08,24.39,42.9,24.39,42.72z"/>
				</defs>
				<clipPath id="SVGID_61_">
					<use xlink:href="#SVGID_60_"  style="overflow:visible;"/>
				</clipPath>
				<g class="st73">
					<path class="st5" d="M27.07,38.92l-0.03,4.43c-0.09-0.02-0.17-0.03-0.26-0.05l0.03-4.43C26.9,38.89,26.99,38.9,27.07,38.92"/>
					<path class="st6" d="M26.81,38.87l-0.03,4.43c-0.1-0.02-0.2-0.03-0.3-0.04l0.03-4.43C26.61,38.84,26.71,38.86,26.81,38.87"/>
					<path class="st7" d="M26.51,38.83l-0.03,4.43c-0.1-0.01-0.2-0.02-0.3-0.03l0.03-4.43C26.31,38.81,26.41,38.82,26.51,38.83"/>
					<path class="st8" d="M26.21,38.8l-0.03,4.43c-0.1-0.01-0.21-0.02-0.31-0.02l0.03-4.43C26,38.79,26.1,38.79,26.21,38.8"/>
					<path class="st9" d="M25.9,38.78l-0.03,4.43c-0.11-0.01-0.22-0.01-0.32-0.01l0.03-4.43C25.68,38.77,25.79,38.78,25.9,38.78"/>
					<path class="st10" d="M25.57,38.77l-0.03,4.43c-0.12,0-0.23,0-0.35,0l0.03-4.43C25.34,38.77,25.46,38.77,25.57,38.77"/>
					<path class="st11" d="M25.22,38.77L25.2,43.2c-0.13,0-0.27,0.01-0.4,0.02l0.03-4.43C24.96,38.79,25.09,38.78,25.22,38.77"/>
					<path class="st12" d="M24.83,38.8l-0.03,4.43c-0.16,0.01-0.33,0.03-0.48,0.05l0.03-4.43C24.5,38.83,24.66,38.81,24.83,38.8"/>
				</g>
			</g>
			<g class="st2">
				<defs>
					<path id="SVGID_62_" class="st2" d="M22.18,43.6c-0.15,0.07-0.3,0.14-0.43,0.22c0.01-1.48,0.02-2.95,0.03-4.43
						c0.13-0.08,0.27-0.15,0.43-0.22C22.2,40.65,22.19,42.12,22.18,43.6z"/>
				</defs>
				<clipPath id="SVGID_63_">
					<use xlink:href="#SVGID_62_"  style="overflow:visible;"/>
				</clipPath>
				<g class="st74">
					<path class="st25" d="M23.75,38.76l-0.03,4.43c-0.68,0.1-1.3,0.27-1.78,0.52l0.03-4.43C22.45,39.04,23.07,38.86,23.75,38.76"/>
					<path class="st24" d="M21.98,39.28l-0.03,4.43c-0.11,0.05-0.21,0.11-0.3,0.18l0.03-4.43C21.77,39.39,21.87,39.33,21.98,39.28"
						/>
				</g>
			</g>
			<g class="st2">
				<defs>
					<path id="SVGID_64_" class="st2" d="M29.09,44.25c-0.39-0.37-1.04-0.68-1.89-0.87c0.01-1.48,0.02-2.95,0.03-4.43
						c0.86,0.19,1.5,0.5,1.89,0.87C29.1,41.3,29.1,42.77,29.09,44.25z"/>
				</defs>
				<clipPath id="SVGID_65_">
					<use xlink:href="#SVGID_64_"  style="overflow:visible;"/>
				</clipPath>
				<g class="st75">
					<path class="st36" d="M29.53,40.66l-0.03,4.43c0-0.53-0.49-1.05-1.37-1.41l0.03-4.43C29.04,39.6,29.53,40.12,29.53,40.66"/>
					<path class="st37" d="M28.16,39.24l-0.03,4.43c-0.12-0.05-0.25-0.1-0.39-0.14l0.03-4.43C27.91,39.14,28.04,39.19,28.16,39.24"
						/>
					<path class="st38" d="M27.77,39.1l-0.03,4.43c-0.11-0.03-0.22-0.07-0.34-0.1L27.44,39C27.55,39.03,27.66,39.07,27.77,39.1"/>
					<path class="st16" d="M27.44,39l-0.03,4.43c-0.07-0.02-0.14-0.04-0.22-0.05c-0.03-0.01-0.06-0.01-0.1-0.02l0.03-4.43
						c0.03,0.01,0.06,0.01,0.1,0.02C27.29,38.97,27.37,38.99,27.44,39"/>
				</g>
			</g>
			<g class="st2">
				<defs>
					<path id="SVGID_66_" class="st2" d="M23.59,43.41c-0.73,0.18-1.34,0.47-1.71,0.84c0.01-1.48,0.02-2.95,0.03-4.43
						c0.37-0.37,0.99-0.66,1.71-0.84C23.61,40.46,23.6,41.94,23.59,43.41z"/>
				</defs>
				<clipPath id="SVGID_67_">
					<use xlink:href="#SVGID_66_"  style="overflow:visible;"/>
				</clipPath>
				<g class="st76">
					<path class="st13" d="M24.34,38.85l-0.03,4.43c-0.68,0.1-1.31,0.27-1.79,0.53l0.03-4.43C23.04,39.12,23.66,38.94,24.34,38.85"
						/>
					<path class="st12" d="M22.55,39.38l-0.03,4.43c-0.11,0.06-0.22,0.12-0.31,0.18l0.03-4.43C22.33,39.49,22.44,39.43,22.55,39.38"
						/>
					<path class="st11" d="M22.24,39.56l-0.03,4.43c-0.07,0.05-0.14,0.1-0.21,0.16l0.03-4.43C22.09,39.66,22.16,39.61,22.24,39.56"
						/>
					<path class="st10" d="M22.03,39.71L22,44.14c-0.04,0.04-0.09,0.07-0.12,0.11c-0.01,0.01-0.02,0.02-0.03,0.03l0.03-4.43
						c0.01-0.01,0.02-0.02,0.03-0.03C21.94,39.79,21.98,39.75,22.03,39.71"/>
				</g>
			</g>
			<g class="st2">
				<defs>
					<path id="SVGID_68_" class="st2" d="M3.03,42.43l0.03-4.43c0,0.73,0.97,1.46,2.6,1.82l-0.03,4.43
						C4.01,43.9,3.03,43.17,3.03,42.43z"/>
				</defs>
				<clipPath id="SVGID_69_">
					<use xlink:href="#SVGID_68_"  style="overflow:visible;"/>
				</clipPath>
				<g class="st77">
					<path class="st16" d="M5.66,39.83l-0.03,4.43c-0.09-0.02-0.17-0.04-0.26-0.06l0.03-4.43C5.49,39.79,5.57,39.81,5.66,39.83"/>
					<path class="st38" d="M5.4,39.77l-0.03,4.43c-0.14-0.04-0.27-0.07-0.4-0.11L5,39.66C5.13,39.7,5.26,39.73,5.4,39.77"/>
					<path class="st37" d="M5,39.66l-0.03,4.43c-0.16-0.05-0.31-0.11-0.45-0.16l0.03-4.43C4.69,39.55,4.85,39.6,5,39.66"/>
					<path class="st36" d="M4.55,39.49l-0.03,4.43c-0.95-0.39-1.5-0.94-1.49-1.48l0.03-4.43C3.06,38.56,3.6,39.1,4.55,39.49"/>
				</g>
			</g>
			<g class="st2">
				<defs>
					<path id="SVGID_70_" class="st2" d="M29.09,43.39c0.01-1.19,0.01-2.38,0.02-3.57c0.07,0.07,0.13,0.14,0.19,0.21
						c-0.01,1.48-0.02,2.95-0.03,4.43c-0.05-0.07-0.12-0.14-0.19-0.21C29.09,43.96,29.09,43.67,29.09,43.39z"/>
				</defs>
				<clipPath id="SVGID_71_">
					<use xlink:href="#SVGID_70_"  style="overflow:visible;"/>
				</clipPath>
				<g class="st78">
					<path class="st36" d="M29.53,40.66l-0.03,4.43c0-0.53-0.49-1.05-1.37-1.41l0.03-4.43C29.04,39.6,29.53,40.12,29.53,40.66"/>
				</g>
			</g>
			<g class="st2">
				<defs>
					<path id="SVGID_72_" class="st2" d="M21.34,44.13c-0.15,0.15-0.25,0.3-0.3,0.45c0.01-1.48,0.02-2.95,0.03-4.43
						c0.05-0.15,0.15-0.31,0.3-0.45c0.12-0.12,0.26-0.22,0.42-0.32c-0.01,1.48-0.02,2.95-0.03,4.43
						C21.59,43.91,21.45,44.02,21.34,44.13z"/>
				</defs>
				<clipPath id="SVGID_73_">
					<use xlink:href="#SVGID_72_"  style="overflow:visible;"/>
				</clipPath>
				<g class="st79">
					<path class="st24" d="M21.98,39.28l-0.03,4.43c-0.11,0.05-0.21,0.11-0.3,0.18l0.03-4.43C21.77,39.39,21.87,39.33,21.98,39.28"
						/>
					<path class="st23" d="M21.68,39.46l-0.03,4.43c-0.07,0.05-0.14,0.1-0.2,0.15l0.03-4.43C21.54,39.55,21.61,39.5,21.68,39.46"/>
					<path class="st22" d="M21.48,39.6l-0.03,4.43c-0.04,0.03-0.08,0.07-0.12,0.11c-0.01,0.01-0.02,0.02-0.03,0.03l0.03-4.43
						c0.01-0.01,0.02-0.02,0.03-0.03C21.4,39.67,21.44,39.64,21.48,39.6"/>
					<path class="st21" d="M21.33,39.74l-0.03,4.43c-0.04,0.04-0.08,0.09-0.11,0.13l0.03-4.43C21.25,39.83,21.29,39.79,21.33,39.74"
						/>
					<path class="st20" d="M21.22,39.87l-0.03,4.43c-0.03,0.04-0.06,0.09-0.09,0.13l0.03-4.43C21.16,39.96,21.19,39.92,21.22,39.87"
						/>
					<path class="st19" d="M21.13,40.01l-0.03,4.43c-0.02,0.04-0.05,0.09-0.06,0.13l0.03-4.43C21.09,40.09,21.11,40.05,21.13,40.01"
						/>
					<path class="st18" d="M21.07,40.14l-0.03,4.43c-0.02,0.05-0.03,0.09-0.04,0.14l0.03-4.43C21.04,40.23,21.06,40.18,21.07,40.14"
						/>
				</g>
			</g>
			<g class="st2">
				<defs>
					<path id="SVGID_74_" class="st2" d="M29.39,44.64c-0.03-0.06-0.07-0.12-0.12-0.18c0.01-1.48,0.02-2.95,0.03-4.43
						c0.05,0.06,0.09,0.12,0.12,0.18C29.41,41.69,29.4,43.16,29.39,44.64z"/>
				</defs>
				<clipPath id="SVGID_75_">
					<use xlink:href="#SVGID_74_"  style="overflow:visible;"/>
				</clipPath>
				<g class="st80">
					<path class="st36" d="M29.53,40.66l-0.03,4.43c0-0.53-0.49-1.05-1.37-1.41l0.03-4.43C29.04,39.6,29.53,40.12,29.53,40.66"/>
				</g>
			</g>
			<g class="st2">
				<defs>
					<path id="SVGID_76_" class="st2" d="M21.88,44.25c-0.16,0.16-0.26,0.32-0.32,0.48c0.01-1.48,0.02-2.95,0.03-4.43
						c0.06-0.16,0.16-0.33,0.32-0.48c0,0.74-0.01,1.48-0.01,2.21c0,0.17,0,0.41,0,0.58c0,0.09,0,0.2,0,0.29c0,0.08,0,0.2,0,0.28
						c0,0.16,0,0.38,0,0.55C21.88,43.89,21.94,44.11,21.88,44.25z"/>
				</defs>
				<clipPath id="SVGID_77_">
					<use xlink:href="#SVGID_76_"  style="overflow:visible;"/>
				</clipPath>
				<g class="st81">
					<path class="st10" d="M22.03,39.71L22,44.14c-0.04,0.04-0.09,0.07-0.12,0.11c-0.01,0.01-0.02,0.02-0.03,0.03l0.03-4.43
						c0.01-0.01,0.02-0.02,0.03-0.03C21.94,39.79,21.98,39.75,22.03,39.71"/>
					<path class="st9" d="M21.87,39.86l-0.03,4.43c-0.04,0.05-0.08,0.09-0.12,0.14L21.75,40C21.79,39.96,21.83,39.91,21.87,39.86"/>
					<path class="st8" d="M21.75,40l-0.03,4.43c-0.03,0.05-0.06,0.09-0.09,0.14l0.03-4.43C21.69,40.1,21.72,40.05,21.75,40"/>
					<path class="st7" d="M21.66,40.14l-0.03,4.43c-0.03,0.05-0.05,0.09-0.07,0.14l0.03-4.43C21.61,40.24,21.63,40.19,21.66,40.14"
						/>
					<path class="st6" d="M21.59,40.28l-0.03,4.43c-0.02,0.05-0.03,0.1-0.04,0.14l0.03-4.43C21.56,40.38,21.57,40.33,21.59,40.28"/>
				</g>
			</g>
			<g class="st2">
				<defs>
					<path id="SVGID_78_" class="st2" d="M2.04,42.43L2.06,38c-0.01,0.91,1.18,1.81,3.17,2.25l-0.03,4.43
						C3.22,44.24,2.03,43.33,2.04,42.43z"/>
				</defs>
				<clipPath id="SVGID_79_">
					<use xlink:href="#SVGID_78_"  style="overflow:visible;"/>
				</clipPath>
				<g class="st82">
					<path class="st4" d="M5.24,40.25l-0.03,4.43C5.1,44.65,5,44.63,4.9,44.6l0.03-4.43C5.03,40.2,5.13,40.23,5.24,40.25"/>
					<path class="st28" d="M4.93,40.18L4.9,44.6c-0.17-0.04-0.33-0.09-0.48-0.14l0.03-4.43C4.6,40.09,4.76,40.13,4.93,40.18"/>
					<path class="st29" d="M4.45,40.04l-0.03,4.43c-0.19-0.06-0.38-0.13-0.55-0.2l0.03-4.43C4.07,39.91,4.25,39.98,4.45,40.04"/>
					<path class="st30" d="M3.9,39.84l-0.03,4.43c-1.17-0.48-1.84-1.16-1.84-1.84L2.06,38C2.06,38.68,2.73,39.36,3.9,39.84"/>
				</g>
			</g>
			<g class="st2">
				<defs>
					<path id="SVGID_80_" class="st2" d="M28.53,40.65l-0.03,4.43c0-0.53-0.64-1.04-1.73-1.28c-1.5-0.33-3.29-0.04-3.99,0.66
						c-0.19,0.19-0.28,0.39-0.28,0.58l0.03-4.43c0-0.2,0.09-0.39,0.28-0.58c0.69-0.69,2.49-0.99,3.99-0.66
						C27.89,39.61,28.53,40.12,28.53,40.65z"/>
				</defs>
				<clipPath id="SVGID_81_">
					<use xlink:href="#SVGID_80_"  style="overflow:visible;"/>
				</clipPath>
				<g class="st83">
					<path class="st30" d="M28.53,40.65l-0.03,4.43c0-0.4-0.37-0.79-1.03-1.06l0.03-4.43C28.16,39.86,28.53,40.25,28.53,40.65"/>
					<path class="st29" d="M27.51,39.59l-0.03,4.43c-0.09-0.04-0.19-0.07-0.29-0.11l0.03-4.43C27.32,39.52,27.41,39.55,27.51,39.59"
						/>
					<path class="st28" d="M27.21,39.48l-0.03,4.43c-0.08-0.03-0.16-0.05-0.25-0.07l0.03-4.43C27.05,39.43,27.13,39.46,27.21,39.48"
						/>
					<path class="st4" d="M26.96,39.41l-0.03,4.43c-0.05-0.01-0.11-0.03-0.16-0.04c-0.03-0.01-0.05-0.01-0.08-0.02l0.03-4.43
						c0.03,0.01,0.05,0.01,0.08,0.02C26.85,39.38,26.91,39.4,26.96,39.41"/>
					<path class="st5" d="M26.72,39.36l-0.03,4.43c-0.08-0.02-0.15-0.03-0.23-0.04l0.03-4.43C26.57,39.33,26.65,39.34,26.72,39.36"
						/>
					<path class="st6" d="M26.49,39.31l-0.03,4.43c-0.07-0.01-0.15-0.02-0.23-0.03l0.03-4.43C26.34,39.29,26.42,39.3,26.49,39.31"/>
					<path class="st7" d="M26.27,39.28l-0.03,4.43c-0.08-0.01-0.15-0.02-0.23-0.02l0.03-4.43C26.12,39.26,26.19,39.27,26.27,39.28"
						/>
					<path class="st8" d="M26.04,39.26l-0.03,4.43c-0.08-0.01-0.15-0.01-0.23-0.02l0.03-4.43C25.89,39.25,25.96,39.25,26.04,39.26"
						/>
					<path class="st9" d="M25.81,39.24l-0.03,4.43c-0.08,0-0.16-0.01-0.24-0.01l0.03-4.43C25.65,39.24,25.73,39.24,25.81,39.24"/>
					<path class="st10" d="M25.56,39.24l-0.03,4.43c-0.09,0-0.18,0-0.26,0l0.03-4.43C25.39,39.24,25.48,39.24,25.56,39.24"/>
					<path class="st11" d="M25.3,39.24l-0.03,4.43c-0.1,0-0.2,0.01-0.3,0.02l0.03-4.43C25.1,39.25,25.2,39.24,25.3,39.24"/>
					<path class="st12" d="M25.01,39.26l-0.03,4.43c-0.13,0.01-0.25,0.02-0.37,0.04l0.03-4.43C24.76,39.28,24.88,39.27,25.01,39.26"
						/>
					<path class="st13" d="M24.64,39.3l-0.03,4.43c-0.51,0.07-0.98,0.21-1.34,0.39l0.03-4.43C23.66,39.5,24.13,39.37,24.64,39.3"/>
					<path class="st12" d="M23.29,39.69l-0.03,4.43c-0.08,0.04-0.16,0.09-0.23,0.14l0.03-4.43C23.13,39.78,23.21,39.73,23.29,39.69"
						/>
					<path class="st11" d="M23.06,39.83l-0.03,4.43c-0.06,0.04-0.11,0.08-0.16,0.12l0.03-4.43C22.95,39.9,23,39.86,23.06,39.83"/>
					<path class="st10" d="M22.9,39.94l-0.03,4.43c-0.03,0.03-0.06,0.06-0.09,0.08c-0.01,0.01-0.02,0.02-0.02,0.03l0.03-4.43
						c0.01-0.01,0.02-0.02,0.02-0.03C22.84,40,22.87,39.97,22.9,39.94"/>
					<path class="st9" d="M22.78,40.05l-0.03,4.43c-0.03,0.04-0.06,0.07-0.09,0.11l0.03-4.43C22.72,40.12,22.75,40.09,22.78,40.05"
						/>
					<path class="st8" d="M22.69,40.16l-0.03,4.43c-0.03,0.03-0.05,0.07-0.07,0.1l0.03-4.43C22.65,40.23,22.67,40.2,22.69,40.16"/>
					<path class="st7" d="M22.63,40.27l-0.03,4.43c-0.02,0.03-0.04,0.07-0.05,0.11l0.03-4.43C22.59,40.34,22.61,40.3,22.63,40.27"/>
					<path class="st6" d="M22.58,40.37l-0.03,4.43c-0.01,0.04-0.02,0.07-0.03,0.11l0.03-4.43C22.55,40.44,22.56,40.41,22.58,40.37"
						/>
					<path class="st5" d="M22.54,40.48l-0.03,4.43c-0.01,0.04-0.01,0.08-0.01,0.11l0.03-4.43C22.53,40.55,22.54,40.52,22.54,40.48"
						/>
					<path class="st4" d="M22.53,40.59l-0.03,4.43c0,0.01,0,0.01,0,0.02l0.03-4.43C22.53,40.6,22.53,40.6,22.53,40.59"/>
				</g>
			</g>
			<g class="st2">
				<defs>
					<path id="SVGID_82_" class="st2" d="M24.24,46.32c-1.1-0.24-1.74-0.75-1.74-1.28l0.03-4.43c0,0.53,0.64,1.04,1.74,1.28
						C24.26,43.37,24.25,44.84,24.24,46.32c0.01-1.48,0.02-2.95,0.03-4.43c1.5,0.33,3.29,0.03,3.99-0.66
						c-0.01,1.48-0.02,2.95-0.03,4.42c0.01-1.48,0.02-2.95,0.03-4.43c0.19-0.19,0.28-0.39,0.28-0.58l-0.03,4.43
						c0,0.2-0.09,0.39-0.28,0.58C27.53,46.35,25.74,46.65,24.24,46.32z"/>
				</defs>
				<clipPath id="SVGID_83_">
					<use xlink:href="#SVGID_82_"  style="overflow:visible;"/>
				</clipPath>
				<g class="st84">
					<path class="st85" d="M28.53,40.65l-0.03,4.43c0,0.01,0,0.01,0,0.02l0.03-4.43C28.53,40.66,28.53,40.66,28.53,40.65"/>
					<path class="st86" d="M28.53,40.67L28.5,45.1c0,0.04-0.01,0.08-0.01,0.11l0.03-4.43C28.52,40.75,28.53,40.71,28.53,40.67"/>
					<path class="st87" d="M28.52,40.78l-0.03,4.43c-0.01,0.04-0.02,0.07-0.03,0.11l0.03-4.43C28.5,40.86,28.51,40.82,28.52,40.78"
						/>
					<path class="st88" d="M28.48,40.89l-0.03,4.43c-0.01,0.04-0.03,0.07-0.05,0.1L28.44,41C28.45,40.96,28.47,40.93,28.48,40.89"/>
					<path class="st89" d="M28.44,41l-0.03,4.43c-0.02,0.03-0.04,0.07-0.07,0.1l0.03-4.43C28.39,41.07,28.42,41.03,28.44,41"/>
					<path class="st90" d="M28.37,41.1l-0.03,4.43c-0.03,0.04-0.06,0.07-0.09,0.11l0.03-4.43C28.31,41.17,28.34,41.14,28.37,41.1"/>
					<path class="st91" d="M28.28,41.21l-0.03,4.43c-0.01,0.01-0.02,0.02-0.02,0.03c-0.03,0.03-0.06,0.06-0.09,0.09l0.03-4.43
						c0.03-0.03,0.06-0.06,0.09-0.09C28.26,41.22,28.27,41.22,28.28,41.21"/>
					<path class="st92" d="M28.16,41.32l-0.03,4.43c-0.05,0.04-0.1,0.08-0.16,0.12L28,41.44C28.06,41.4,28.11,41.36,28.16,41.32"/>
					<path class="st93" d="M28,41.44l-0.03,4.43c-0.07,0.05-0.15,0.1-0.24,0.14l0.03-4.43C27.85,41.53,27.93,41.49,28,41.44"/>
					<path class="st94" d="M27.76,41.58L27.74,46c-0.37,0.19-0.83,0.32-1.34,0.39l0.03-4.43C26.93,41.9,27.4,41.76,27.76,41.58"/>
					<path class="st93" d="M26.42,41.97l-0.03,4.43c-0.12,0.02-0.24,0.03-0.37,0.04l0.03-4.43C26.18,42,26.3,41.99,26.42,41.97"/>
					<path class="st92" d="M26.05,42.01l-0.03,4.43c-0.1,0.01-0.19,0.01-0.29,0.02l0.03-4.43C25.86,42.02,25.95,42.02,26.05,42.01"
						/>
					<path class="st91" d="M25.76,42.03l-0.03,4.43c-0.09,0-0.17,0-0.26,0l0.03-4.43C25.58,42.03,25.67,42.03,25.76,42.03"/>
					<path class="st90" d="M25.5,42.03l-0.03,4.43c-0.08,0-0.16,0-0.24-0.01l0.03-4.43C25.34,42.03,25.42,42.03,25.5,42.03"/>
					<path class="st89" d="M25.25,42.02l-0.03,4.43c-0.08,0-0.15-0.01-0.23-0.02l0.03-4.43C25.1,42.01,25.18,42.02,25.25,42.02"/>
					<path class="st88" d="M25.02,42.01L25,46.43c-0.08-0.01-0.15-0.01-0.23-0.02l0.03-4.43C24.87,41.99,24.95,42,25.02,42.01"/>
					<path class="st87" d="M24.8,41.98l-0.03,4.43c-0.08-0.01-0.15-0.02-0.22-0.03l0.03-4.43C24.65,41.96,24.72,41.98,24.8,41.98"/>
					<path class="st86" d="M24.57,41.95l-0.03,4.43c-0.08-0.01-0.15-0.03-0.23-0.04l0.03-4.43C24.42,41.93,24.5,41.94,24.57,41.95"
						/>
					<path class="st85" d="M24.34,41.91l-0.03,4.43c-0.03-0.01-0.05-0.01-0.08-0.02c-0.06-0.01-0.11-0.03-0.16-0.04l0.03-4.43
						c0.05,0.01,0.11,0.03,0.16,0.04C24.29,41.9,24.32,41.91,24.34,41.91"/>
					<path class="st95" d="M24.1,41.86l-0.03,4.43c-0.09-0.02-0.17-0.05-0.25-0.07l0.03-4.43C23.93,41.81,24.02,41.83,24.1,41.86"/>
					<path class="st96" d="M23.85,41.78l-0.03,4.43c-0.1-0.03-0.2-0.07-0.29-0.11l0.03-4.43C23.65,41.71,23.75,41.75,23.85,41.78"/>
					<path class="st97" d="M23.56,41.68l-0.03,4.43c-0.66-0.27-1.03-0.66-1.03-1.07l0.03-4.43C22.53,41.01,22.9,41.41,23.56,41.68"
						/>
				</g>
			</g>
			<g class="st2">
				<defs>
					<path id="SVGID_84_" class="st2" d="M29.53,40.66l-0.03,4.43c0,0.26-0.12,0.53-0.37,0.78c-0.93,0.93-3.31,1.32-5.31,0.88
						c-0.05-0.01-0.1-0.02-0.14-0.03c-1.37-0.33-2.17-1-2.17-1.68l0.03-4.43c0,0.68,0.8,1.34,2.17,1.68
						c0.05,0.01,0.1,0.02,0.14,0.03c2,0.44,4.38,0.04,5.31-0.88C29.41,41.18,29.53,40.92,29.53,40.66z"/>
				</defs>
				<clipPath id="SVGID_85_">
					<use xlink:href="#SVGID_84_"  style="overflow:visible;"/>
				</clipPath>
				<g class="st98">
					<path class="st4" d="M29.53,40.66l-0.03,4.43c0,0.01,0,0.02,0,0.03l0.03-4.43C29.53,40.67,29.53,40.67,29.53,40.66"/>
					<path class="st5" d="M29.53,40.68l-0.03,4.43c0,0.05-0.01,0.1-0.02,0.15l0.03-4.43C29.52,40.78,29.53,40.73,29.53,40.68"/>
					<path class="st6" d="M29.51,40.83l-0.03,4.43c-0.01,0.05-0.02,0.1-0.04,0.14l0.03-4.43C29.49,40.93,29.5,40.88,29.51,40.83"/>
					<path class="st7" d="M29.47,40.98l-0.03,4.43c-0.02,0.05-0.04,0.09-0.07,0.14l0.03-4.43C29.43,41.07,29.45,41.02,29.47,40.98"
						/>
					<path class="st8" d="M29.4,41.12l-0.03,4.43c-0.03,0.05-0.06,0.09-0.09,0.14l0.03-4.43C29.35,41.21,29.38,41.16,29.4,41.12"/>
					<path class="st9" d="M29.31,41.26l-0.03,4.43c-0.04,0.05-0.08,0.1-0.12,0.14l0.03-4.43C29.24,41.35,29.28,41.3,29.31,41.26"/>
					<path class="st10" d="M29.19,41.4l-0.03,4.43c-0.01,0.01-0.02,0.02-0.03,0.03c-0.04,0.04-0.08,0.08-0.13,0.11l0.03-4.43
						c0.04-0.04,0.09-0.08,0.13-0.11C29.17,41.42,29.18,41.41,29.19,41.4"/>
					<path class="st11" d="M29.03,41.55l-0.03,4.43c-0.06,0.05-0.14,0.11-0.21,0.16l0.03-4.43C28.9,41.65,28.97,41.6,29.03,41.55"/>
					<path class="st12" d="M28.82,41.7l-0.03,4.43c-0.1,0.07-0.2,0.13-0.32,0.18l0.03-4.43C28.62,41.83,28.73,41.77,28.82,41.7"/>
					<path class="st13" d="M28.51,41.89l-0.03,4.43c-0.49,0.25-1.11,0.43-1.79,0.53l0.03-4.43C27.4,42.32,28.02,42.14,28.51,41.89"
						/>
					<path class="st12" d="M26.71,42.42l-0.03,4.43c-0.16,0.02-0.32,0.04-0.49,0.05l0.03-4.43C26.39,42.46,26.55,42.44,26.71,42.42"
						/>
					<path class="st11" d="M26.22,42.47l-0.03,4.43c-0.13,0.01-0.26,0.02-0.39,0.02l0.03-4.43C25.96,42.49,26.1,42.48,26.22,42.47"
						/>
					<path class="st10" d="M25.83,42.49l-0.03,4.43c-0.12,0-0.23,0.01-0.35,0l0.03-4.43C25.6,42.5,25.72,42.49,25.83,42.49"/>
					<path class="st9" d="M25.48,42.49l-0.03,4.43c-0.11,0-0.22,0-0.32-0.01l0.03-4.43C25.27,42.49,25.38,42.49,25.48,42.49"/>
					<path class="st8" d="M25.16,42.49l-0.03,4.43c-0.1,0-0.21-0.01-0.31-0.02l0.03-4.43C24.96,42.47,25.06,42.48,25.16,42.49"/>
					<path class="st7" d="M24.85,42.47l-0.03,4.43c-0.1-0.01-0.2-0.02-0.3-0.03l0.03-4.43C24.65,42.45,24.75,42.46,24.85,42.47"/>
					<path class="st6" d="M24.55,42.43l-0.03,4.43c-0.1-0.01-0.2-0.03-0.3-0.04l0.03-4.43C24.35,42.41,24.45,42.42,24.55,42.43"/>
					<path class="st5" d="M24.25,42.39l-0.03,4.43c-0.1-0.02-0.2-0.04-0.31-0.06l0.03-4.43C24.05,42.36,24.15,42.38,24.25,42.39"/>
					<path class="st4" d="M23.95,42.34l-0.03,4.43c-0.03-0.01-0.07-0.01-0.1-0.02c-0.05-0.01-0.1-0.02-0.14-0.03
						c-0.02-0.01-0.05-0.01-0.07-0.02l0.03-4.43c0.02,0.01,0.05,0.01,0.07,0.02c0.05,0.01,0.1,0.02,0.14,0.03
						C23.88,42.32,23.91,42.33,23.95,42.34"/>
					<path class="st28" d="M23.63,42.26l-0.03,4.43c-0.12-0.03-0.23-0.06-0.34-0.1l0.03-4.43C23.4,42.2,23.51,42.23,23.63,42.26"/>
					<path class="st29" d="M23.29,42.17l-0.03,4.43c-0.13-0.04-0.26-0.09-0.38-0.14l0.03-4.43C23.03,42.08,23.16,42.12,23.29,42.17"
						/>
					<path class="st30" d="M22.91,42.03l-0.03,4.43c-0.88-0.36-1.38-0.89-1.38-1.42l0.03-4.43C21.53,41.14,22.03,41.67,22.91,42.03"
						/>
				</g>
			</g>
			<g class="st2">
				<defs>
					<path id="SVGID_86_" class="st2" d="M21.56,44.74c-0.01,0.01-0.01,0.03-0.01,0.04c0.01-1.48,0.02-2.95,0.03-4.43
						c0-0.01,0.01-0.03,0.01-0.04c0,0.74-0.01,1.48-0.01,2.21c0,0.09,0,0.2,0,0.29c0,0.17,0,0.4,0,0.58c0,0.08,0,0.2,0,0.28
						c0,0.16,0,0.38,0,0.55C21.56,44.38,21.58,44.58,21.56,44.74z"/>
				</defs>
				<clipPath id="SVGID_87_">
					<use xlink:href="#SVGID_86_"  style="overflow:visible;"/>
				</clipPath>
				<g class="st99">
					<path class="st6" d="M21.59,40.28l-0.03,4.43c-0.02,0.05-0.03,0.1-0.04,0.14l0.03-4.43C21.56,40.38,21.57,40.33,21.59,40.28"/>
				</g>
			</g>
			<g class="st2">
				<defs>
					<path id="SVGID_88_" class="st2" d="M20.99,44.78c0.01-1.48,0.02-2.95,0.03-4.43c0.01-0.06,0.02-0.13,0.05-0.19
						c-0.01,1.48-0.02,2.95-0.03,4.43C21.02,44.65,21,44.72,20.99,44.78z"/>
				</defs>
				<clipPath id="SVGID_89_">
					<use xlink:href="#SVGID_88_"  style="overflow:visible;"/>
				</clipPath>
				<g class="st100">
					<path class="st18" d="M21.07,40.14l-0.03,4.43c-0.02,0.05-0.03,0.09-0.04,0.14l0.03-4.43C21.04,40.23,21.06,40.18,21.07,40.14"
						/>
					<path class="st17" d="M21.03,40.27l-0.03,4.43c-0.01,0.05-0.02,0.1-0.02,0.14l0.03-4.43C21.02,40.37,21.02,40.32,21.03,40.27"
						/>
				</g>
			</g>
			<g class="st2">
				<defs>
					<path id="SVGID_90_" class="st2" d="M20.99,44.78c0,0.03-0.01,0.06-0.01,0.09l0.03-4.43c0-0.03,0-0.06,0.01-0.09
						c-0.01,1.14-0.01,2.29-0.02,3.43C21,44.12,21.01,44.45,20.99,44.78z"/>
				</defs>
				<clipPath id="SVGID_91_">
					<use xlink:href="#SVGID_90_"  style="overflow:visible;"/>
				</clipPath>
				<g class="st101">
					<path class="st17" d="M21.03,40.27l-0.03,4.43c-0.01,0.05-0.02,0.1-0.02,0.14l0.03-4.43C21.02,40.37,21.02,40.32,21.03,40.27"
						/>
					<path class="st16" d="M21.01,40.42l-0.03,4.43c0,0.01,0,0.02,0,0.03l0.03-4.43C21.01,40.44,21.01,40.43,21.01,40.42"/>
				</g>
			</g>
			<g class="st2">
				<defs>
					<path id="SVGID_92_" class="st2" d="M21.54,44.78c-0.02,0.08-0.04,0.16-0.04,0.25l0.03-4.43c0-0.08,0.01-0.16,0.04-0.25
						c0,0.74-0.01,1.48-0.01,2.21c0,0.38,0,0.77-0.01,1.15c0,0.16,0,0.38,0,0.55C21.54,44.42,21.57,44.63,21.54,44.78z"/>
				</defs>
				<clipPath id="SVGID_93_">
					<use xlink:href="#SVGID_92_"  style="overflow:visible;"/>
				</clipPath>
				<g class="st102">
					<path class="st6" d="M21.59,40.28l-0.03,4.43c-0.02,0.05-0.03,0.1-0.04,0.14l0.03-4.43C21.56,40.38,21.57,40.33,21.59,40.28"/>
					<path class="st5" d="M21.55,40.43l-0.03,4.43c-0.01,0.05-0.02,0.1-0.02,0.15l0.03-4.43C21.53,40.53,21.54,40.48,21.55,40.43"/>
					<path class="st4" d="M21.53,40.58L21.51,45c0,0.01,0,0.02,0,0.03l0.03-4.43C21.53,40.59,21.53,40.59,21.53,40.58"/>
				</g>
			</g>
			<g class="st2">
				<defs>
					<path id="SVGID_94_" class="st2" d="M29.4,43.78c0.01-1.19,0.01-2.38,0.02-3.57c0.08,0.15,0.11,0.3,0.11,0.45l-0.03,4.43
						c0-0.15-0.04-0.3-0.11-0.45C29.39,44.35,29.39,44.07,29.4,43.78z"/>
				</defs>
				<clipPath id="SVGID_95_">
					<use xlink:href="#SVGID_94_"  style="overflow:visible;"/>
				</clipPath>
				<g class="st103">
					<path class="st36" d="M29.53,40.66l-0.03,4.43c0-0.53-0.49-1.05-1.37-1.41l0.03-4.43C29.04,39.6,29.53,40.12,29.53,40.66"/>
				</g>
			</g>
			<g>
				<polygon class="st104" points="69.48,18.24 69.46,22.67 46.64,45.39 46.67,40.97 				"/>
			</g>
			<g>
				<polygon class="st60" points="70.39,18.44 70.36,22.87 47.55,45.59 47.57,41.17 				"/>
			</g>
			<g>
				<path class="st105" d="M68.3,16.72c1.22,0.27,1.76,0.95,1.18,1.52L46.67,40.97c-0.57,0.57-2.03,0.81-3.26,0.54l-28.94-6.4
					c-1.23-0.27-1.76-0.96-1.19-1.52L36.1,10.86c0.57-0.57,2.03-0.81,3.26-0.54L68.3,16.72z"/>
			</g>
			<g class="st2">
				<defs>
					<path id="SVGID_96_" class="st2" d="M43.39,45.93c0.01-1.48,0.02-2.95,0.03-4.43c1.22,0.27,2.69,0.03,3.26-0.54l-0.03,4.43
						C46.07,45.96,44.61,46.2,43.39,45.93z"/>
				</defs>
				<clipPath id="SVGID_97_">
					<use xlink:href="#SVGID_96_"  style="overflow:visible;"/>
				</clipPath>
				<g class="st106">
					<path class="st58" d="M46.67,40.97l-0.03,4.43c-0.02,0.02-0.05,0.05-0.08,0.07l0.03-4.43C46.62,41.01,46.64,40.99,46.67,40.97"
						/>
					<path class="st107" d="M46.59,41.04l-0.03,4.43c-0.04,0.03-0.08,0.07-0.13,0.1l0.03-4.43C46.51,41.1,46.55,41.07,46.59,41.04"
						/>
					<path class="st108" d="M46.46,41.13l-0.03,4.43c-0.06,0.04-0.12,0.08-0.19,0.11l0.03-4.43C46.34,41.21,46.4,41.17,46.46,41.13"
						/>
					<path class="st109" d="M46.27,41.25l-0.03,4.43c-0.3,0.15-0.68,0.26-1.1,0.32l0.03-4.43C45.59,41.51,45.97,41.4,46.27,41.25"/>
					<path class="st108" d="M45.17,41.57l-0.03,4.43c-0.1,0.01-0.2,0.02-0.3,0.03l0.03-4.43C44.97,41.59,45.07,41.58,45.17,41.57"/>
					<path class="st107" d="M44.87,41.6l-0.03,4.43c-0.08,0.01-0.16,0.01-0.24,0.01l0.03-4.43C44.71,41.61,44.79,41.61,44.87,41.6"
						/>
					<path class="st58" d="M44.63,41.62l-0.03,4.43c-0.07,0-0.14,0-0.21,0l0.03-4.43C44.48,41.62,44.56,41.62,44.63,41.62"/>
					<path class="st57" d="M44.41,41.62l-0.03,4.43c-0.07,0-0.13,0-0.2-0.01l0.03-4.43C44.28,41.62,44.35,41.62,44.41,41.62"/>
					<path class="st56" d="M44.22,41.61l-0.03,4.43c-0.06,0-0.13-0.01-0.19-0.01l0.03-4.43C44.09,41.6,44.15,41.61,44.22,41.61"/>
					<path class="st55" d="M44.03,41.6L44,46.02c-0.06-0.01-0.12-0.01-0.18-0.02l0.03-4.43C43.9,41.59,43.97,41.59,44.03,41.6"/>
					<path class="st54" d="M43.84,41.58l-0.03,4.43c-0.06-0.01-0.12-0.02-0.18-0.03l0.03-4.43C43.72,41.56,43.78,41.57,43.84,41.58"
						/>
					<path class="st53" d="M43.66,41.55l-0.03,4.43c-0.06-0.01-0.12-0.02-0.19-0.03l0.03-4.43C43.54,41.53,43.6,41.54,43.66,41.55"
						/>
					<path class="st52" d="M43.47,41.52l-0.03,4.43c-0.02,0-0.04-0.01-0.06-0.01l0.03-4.43C43.43,41.51,43.45,41.52,43.47,41.52"/>
				</g>
			</g>
			<g class="st2">
				<defs>
					<path id="SVGID_98_" class="st2" d="M22.89,46.5c-1.21-0.39-1.91-1.01-1.91-1.63l0.03-4.43c0,0.63,0.7,1.25,1.91,1.63
						C22.91,43.56,22.9,45.03,22.89,46.5z"/>
				</defs>
				<clipPath id="SVGID_99_">
					<use xlink:href="#SVGID_98_"  style="overflow:visible;"/>
				</clipPath>
				<g class="st110">
					<path class="st29" d="M22.92,42.08l-0.03,4.43c-0.15-0.05-0.3-0.1-0.44-0.16l0.03-4.43C22.62,41.98,22.77,42.03,22.92,42.08"/>
					<path class="st30" d="M22.48,41.92l-0.03,4.43c-0.94-0.39-1.47-0.93-1.47-1.48l0.03-4.43C21.01,40.99,21.54,41.54,22.48,41.92"
						/>
				</g>
			</g>
			<g class="st2">
				<defs>
					<path id="SVGID_100_" class="st2" d="M47.57,41.17l-0.03,4.43c-0.8,0.8-2.86,1.14-4.58,0.76l0.03-4.43
						C44.71,42.31,46.77,41.97,47.57,41.17z"/>
				</defs>
				<clipPath id="SVGID_101_">
					<use xlink:href="#SVGID_100_"  style="overflow:visible;"/>
				</clipPath>
				<g class="st111">
					<path class="st10" d="M47.57,41.17l-0.03,4.43c-0.03,0.03-0.07,0.07-0.11,0.1l0.03-4.43C47.5,41.23,47.54,41.2,47.57,41.17"/>
					<path class="st11" d="M47.47,41.27l-0.03,4.43c-0.06,0.05-0.12,0.09-0.18,0.14l0.03-4.43C47.35,41.36,47.41,41.31,47.47,41.27"
						/>
					<path class="st12" d="M47.28,41.4l-0.03,4.43c-0.08,0.06-0.18,0.11-0.27,0.16l0.03-4.43C47.11,41.51,47.2,41.46,47.28,41.4"/>
					<path class="st13" d="M47.01,41.56l-0.03,4.43c-0.42,0.22-0.96,0.37-1.55,0.45l0.03-4.43C46.05,41.93,46.59,41.78,47.01,41.56"
						/>
					<path class="st12" d="M45.47,42.01l-0.03,4.43c-0.14,0.02-0.28,0.03-0.42,0.05l0.03-4.43C45.19,42.05,45.33,42.03,45.47,42.01"
						/>
					<path class="st11" d="M45.04,42.06l-0.03,4.43c-0.11,0.01-0.22,0.02-0.34,0.02l0.03-4.43C44.82,42.08,44.93,42.07,45.04,42.06"
						/>
					<path class="st10" d="M44.71,42.08l-0.03,4.43c-0.1,0-0.2,0-0.3,0l0.03-4.43C44.51,42.08,44.61,42.08,44.71,42.08"/>
					<path class="st9" d="M44.4,42.08l-0.03,4.43c-0.09,0-0.19,0-0.28-0.01l0.03-4.43C44.22,42.08,44.31,42.08,44.4,42.08"/>
					<path class="st8" d="M44.13,42.08L44.1,46.5c-0.09,0-0.18-0.01-0.27-0.02l0.03-4.43C43.95,42.07,44.04,42.07,44.13,42.08"/>
					<path class="st7" d="M43.86,42.06l-0.03,4.43c-0.09-0.01-0.17-0.02-0.26-0.03l0.03-4.43C43.69,42.04,43.77,42.05,43.86,42.06"
						/>
					<path class="st6" d="M43.6,42.03l-0.03,4.43c-0.09-0.01-0.17-0.02-0.26-0.04l0.03-4.43C43.43,42.01,43.51,42.02,43.6,42.03"/>
					<path class="st5" d="M43.34,41.99l-0.03,4.43c-0.09-0.01-0.18-0.03-0.26-0.05l0.03-4.43C43.17,41.96,43.25,41.98,43.34,41.99"
						/>
					<path class="st4" d="M43.08,41.95l-0.03,4.43c-0.03-0.01-0.06-0.01-0.09-0.02l0.03-4.43C43.02,41.93,43.05,41.94,43.08,41.95"
						/>
				</g>
			</g>
			<g>
				<path class="st39" d="M68.72,16.3c1.72,0.38,2.47,1.34,1.67,2.14L47.57,41.17c-0.8,0.8-2.86,1.14-4.58,0.76l-28.94-6.4
					c-1.73-0.38-2.48-1.34-1.68-2.14l22.81-22.73c0.8-0.8,2.86-1.14,4.59-0.76L68.72,16.3z M46.67,40.97l22.81-22.73
					c0.57-0.57,0.04-1.25-1.18-1.52l-28.94-6.4c-1.23-0.27-2.69-0.03-3.26,0.54L13.28,33.58c-0.57,0.57-0.04,1.25,1.19,1.52
					l28.94,6.4C44.64,41.78,46.1,41.53,46.67,40.97"/>
			</g>
			<g class="st2">
				<defs>
					<path id="SVGID_102_" class="st2" d="M23.27,46.61c-0.13-0.03-0.26-0.07-0.38-0.11c0.01-1.48,0.02-2.95,0.03-4.43
						c0.12,0.04,0.25,0.08,0.38,0.11C23.29,43.66,23.28,45.14,23.27,46.61z"/>
				</defs>
				<clipPath id="SVGID_103_">
					<use xlink:href="#SVGID_102_"  style="overflow:visible;"/>
				</clipPath>
				<g class="st112">
					<path class="st4" d="M23.65,42.27l-0.03,4.43c-0.04-0.01-0.07-0.02-0.11-0.02c-0.08-0.02-0.16-0.04-0.24-0.06l0.03-4.43
						c0.08,0.02,0.16,0.04,0.24,0.06C23.58,42.26,23.62,42.26,23.65,42.27"/>
					<path class="st28" d="M23.3,42.19l-0.03,4.43c-0.13-0.03-0.26-0.07-0.38-0.11l0.03-4.43C23.04,42.12,23.17,42.16,23.3,42.19"/>
					<path class="st29" d="M22.92,42.08l-0.03,4.43c-0.15-0.05-0.3-0.1-0.44-0.16l0.03-4.43C22.62,41.98,22.77,42.03,22.92,42.08"/>
				</g>
			</g>
			<g>
				<path class="st39" d="M27.22,38.95c2,0.44,2.87,1.55,1.94,2.48s-3.31,1.32-5.31,0.88c-0.05-0.01-0.1-0.02-0.14-0.03
					c-1.9-0.46-2.7-1.55-1.8-2.45c0.91-0.9,3.2-1.3,5.17-0.91C27.12,38.93,27.17,38.94,27.22,38.95z M24.27,41.89
					c1.5,0.33,3.29,0.03,3.99-0.66c0.69-0.69,0.05-1.53-1.45-1.86c-1.5-0.33-3.29-0.04-3.99,0.66
					C22.11,40.72,22.77,41.56,24.27,41.89"/>
			</g>
			<g>
				<path class="st113" d="M26.8,39.37c1.5,0.33,2.15,1.17,1.45,1.86c-0.7,0.7-2.48,0.99-3.99,0.66c-1.5-0.33-2.16-1.17-1.46-1.87
					C23.5,39.34,25.3,39.04,26.8,39.37z"/>
			</g>
			<g class="st2">
				<defs>
					<path id="SVGID_104_" class="st2" d="M23.27,46.61c0.01-1.48,0.02-2.95,0.03-4.43c0.07,0.02,0.14,0.03,0.21,0.05
						c-0.01,1.48-0.02,2.95-0.03,4.43C23.41,46.65,23.34,46.63,23.27,46.61z"/>
				</defs>
				<clipPath id="SVGID_105_">
					<use xlink:href="#SVGID_104_"  style="overflow:visible;"/>
				</clipPath>
				<g class="st114">
					<path class="st4" d="M23.65,42.27l-0.03,4.43c-0.04-0.01-0.07-0.02-0.11-0.02c-0.08-0.02-0.16-0.04-0.24-0.06l0.03-4.43
						c0.08,0.02,0.16,0.04,0.24,0.06C23.58,42.26,23.62,42.26,23.65,42.27"/>
				</g>
			</g>
			<g class="st2">
				<defs>
					<path id="SVGID_106_" class="st2" d="M23.52,46.67c-0.01,0-0.02,0-0.03-0.01c0.01-1.48,0.02-2.95,0.03-4.43
						c0.01,0,0.02,0,0.03,0.01c0.05,0.01,0.1,0.02,0.16,0.03l-0.03,4.43C23.62,46.69,23.57,46.68,23.52,46.67z"/>
				</defs>
				<clipPath id="SVGID_107_">
					<use xlink:href="#SVGID_106_"  style="overflow:visible;"/>
				</clipPath>
				<g class="st115">
					<path class="st5" d="M23.7,42.28l-0.03,4.43c-0.02,0-0.03-0.01-0.05-0.01l0.03-4.43C23.67,42.27,23.68,42.28,23.7,42.28"/>
					<path class="st4" d="M23.65,42.27l-0.03,4.43c-0.04-0.01-0.07-0.02-0.11-0.02c-0.08-0.02-0.16-0.04-0.24-0.06l0.03-4.43
						c0.08,0.02,0.16,0.04,0.24,0.06C23.58,42.26,23.62,42.26,23.65,42.27"/>
				</g>
			</g>
			<g>
				<path class="st39" d="M27.07,38.92c-1.97-0.39-4.26,0-5.17,0.91c-0.91,0.9-0.1,1.99,1.8,2.45c-0.05-0.01-0.11-0.02-0.16-0.03
					c-2.13-0.47-3.11-1.61-2.18-2.54s3.42-1.29,5.55-0.82C26.97,38.9,27.02,38.91,27.07,38.92z"/>
			</g>
			<g>
				<polygon class="st59" points="78.12,15.29 78.09,19.71 46.45,51.24 46.48,46.81 				"/>
			</g>
			<g>
				<polygon class="st60" points="79.02,15.49 79,19.91 47.36,51.44 47.38,47.01 				"/>
			</g>
			<g>
				<polygon class="st19" points="40.87,47.62 40.84,52.04 5.63,44.26 5.66,39.83 				"/>
			</g>
			<g>
				<polygon class="st14" points="40.45,48.04 40.42,52.46 5.21,44.68 5.24,40.25 				"/>
			</g>
			<g>
				<path class="st116" d="M75.87,12.75c2.16,0.48,3.17,1.62,2.24,2.54L46.48,46.81c-0.93,0.93-3.44,1.29-5.61,0.81L5.66,39.83
					c-2.17-0.48-3.18-1.62-2.25-2.54L35.05,5.76c0.93-0.93,3.44-1.29,5.61-0.81L75.87,12.75z M47.57,41.17l22.81-22.73
					c0.8-0.8,0.05-1.76-1.67-2.14L39.78,9.9c-1.73-0.38-3.79-0.04-4.59,0.76L12.38,33.38c-0.8,0.8-0.05,1.76,1.68,2.14l28.94,6.4
					C44.71,42.31,46.77,41.97,47.57,41.17 M23.85,42.31c2,0.44,4.38,0.04,5.31-0.88s0.06-2.04-1.94-2.48
					c-0.05-0.01-0.1-0.02-0.15-0.03c-0.05-0.01-0.1-0.02-0.15-0.04c-2.13-0.47-4.62-0.1-5.55,0.82s0.05,2.07,2.18,2.54
					c0.05,0.01,0.1,0.02,0.16,0.03C23.75,42.29,23.8,42.3,23.85,42.31 M49.67,8.49c-0.79-0.18-1.71-0.03-2.06,0.32
					c-0.35,0.35,0,0.77,0.79,0.95l15.63,3.46c0.79,0.18,1.71,0.03,2.06-0.32s0-0.77-0.79-0.95L49.67,8.49"/>
			</g>
			<g class="st2">
				<defs>
					<path id="SVGID_108_" class="st2" d="M46.48,46.81l-0.03,4.43c-0.93,0.93-3.44,1.29-5.61,0.81l0.03-4.43
						C43.03,48.1,45.55,47.74,46.48,46.81z"/>
				</defs>
				<clipPath id="SVGID_109_">
					<use xlink:href="#SVGID_108_"  style="overflow:visible;"/>
				</clipPath>
				<g class="st117">
					<path class="st22" d="M46.48,46.81l-0.03,4.43c-0.04,0.04-0.07,0.07-0.12,0.11l0.03-4.43C46.4,46.88,46.44,46.85,46.48,46.81"
						/>
					<path class="st23" d="M46.36,46.92l-0.03,4.43c-0.06,0.05-0.12,0.1-0.19,0.14l0.03-4.43C46.24,47.01,46.3,46.97,46.36,46.92"/>
					<path class="st24" d="M46.17,47.06l-0.03,4.43c-0.09,0.06-0.19,0.12-0.29,0.17l0.03-4.43C45.98,47.18,46.08,47.12,46.17,47.06"
						/>
					<path class="st25" d="M45.87,47.23l-0.03,4.43c-0.47,0.24-1.09,0.42-1.77,0.51l0.03-4.43C44.79,47.65,45.4,47.48,45.87,47.23"
						/>
					<path class="st24" d="M44.1,47.74l-0.03,4.43c-0.17,0.02-0.34,0.04-0.51,0.06l0.03-4.43C43.76,47.79,43.94,47.77,44.1,47.74"/>
					<path class="st23" d="M43.59,47.8l-0.03,4.43c-0.14,0.01-0.29,0.02-0.43,0.02l0.03-4.43C43.3,47.82,43.45,47.81,43.59,47.8"/>
					<path class="st22" d="M43.16,47.82l-0.03,4.43c-0.13,0-0.26,0.01-0.39,0l0.03-4.43C42.9,47.83,43.03,47.83,43.16,47.82"/>
					<path class="st21" d="M42.77,47.83l-0.03,4.43c-0.12,0-0.24,0-0.37-0.01l0.03-4.43C42.53,47.82,42.65,47.83,42.77,47.83"/>
					<path class="st20" d="M42.4,47.82l-0.03,4.43c-0.12-0.01-0.24-0.01-0.35-0.02l0.03-4.43C42.17,47.8,42.29,47.81,42.4,47.82"/>
					<path class="st19" d="M42.05,47.79l-0.03,4.43c-0.12-0.01-0.23-0.02-0.35-0.04l0.03-4.43C41.82,47.77,41.93,47.79,42.05,47.79"
						/>
					<path class="st18" d="M41.7,47.76l-0.03,4.43c-0.12-0.01-0.23-0.03-0.35-0.05l0.03-4.43C41.47,47.73,41.58,47.74,41.7,47.76"/>
					<path class="st17" d="M41.35,47.71l-0.03,4.43c-0.12-0.02-0.24-0.04-0.36-0.07l0.03-4.43C41.11,47.67,41.23,47.69,41.35,47.71"
						/>
					<path class="st16" d="M40.99,47.64l-0.03,4.43c-0.04-0.01-0.08-0.02-0.12-0.03l0.03-4.43C40.91,47.63,40.95,47.63,40.99,47.64"
						/>
				</g>
			</g>
			<g class="st2">
				<defs>
					<path id="SVGID_110_" class="st2" d="M47.38,47.01l-0.03,4.43c-1.16,1.16-4.27,1.61-6.93,1.03l0.03-4.43
						C43.11,48.63,46.22,48.17,47.38,47.01z"/>
				</defs>
				<clipPath id="SVGID_111_">
					<use xlink:href="#SVGID_110_"  style="overflow:visible;"/>
				</clipPath>
				<g class="st118">
					<path class="st10" d="M47.38,47.01l-0.03,4.43c-0.05,0.05-0.09,0.09-0.15,0.13l0.03-4.43C47.29,47.1,47.34,47.06,47.38,47.01"
						/>
					<path class="st11" d="M47.23,47.14l-0.03,4.43c-0.08,0.06-0.16,0.12-0.24,0.18l0.03-4.43C47.08,47.27,47.16,47.21,47.23,47.14"
						/>
					<path class="st12" d="M46.99,47.33l-0.03,4.43c-0.12,0.08-0.24,0.15-0.37,0.22l0.03-4.43C46.75,47.48,46.87,47.4,46.99,47.33"
						/>
					<path class="st13" d="M46.62,47.55l-0.03,4.43c-0.59,0.3-1.36,0.52-2.21,0.64l0.03-4.43C45.25,48.07,46.02,47.85,46.62,47.55"
						/>
					<path class="st12" d="M44.4,48.19l-0.03,4.43c-0.21,0.03-0.42,0.05-0.64,0.07l0.03-4.43C43.98,48.24,44.19,48.22,44.4,48.19"/>
					<path class="st11" d="M43.76,48.26l-0.03,4.43c-0.17,0.01-0.35,0.02-0.53,0.03l0.03-4.43C43.41,48.28,43.59,48.27,43.76,48.26"
						/>
					<path class="st10" d="M43.23,48.29l-0.03,4.43c-0.16,0-0.32,0.01-0.48,0.01l0.03-4.43C42.92,48.29,43.08,48.29,43.23,48.29"/>
					<path class="st9" d="M42.76,48.29l-0.03,4.43c-0.15,0-0.3-0.01-0.45-0.01l0.03-4.43C42.46,48.29,42.61,48.29,42.76,48.29"/>
					<path class="st8" d="M42.31,48.28l-0.03,4.43c-0.14-0.01-0.29-0.02-0.43-0.03l0.03-4.43C42.02,48.26,42.17,48.27,42.31,48.28"
						/>
					<path class="st7" d="M41.88,48.25l-0.03,4.43c-0.14-0.01-0.28-0.03-0.42-0.04l0.03-4.43C41.59,48.23,41.74,48.24,41.88,48.25"
						/>
					<path class="st6" d="M41.45,48.21l-0.03,4.43c-0.14-0.02-0.28-0.04-0.43-0.06l0.03-4.43C41.17,48.17,41.31,48.19,41.45,48.21"
						/>
					<path class="st5" d="M41.03,48.15L41,52.57c-0.15-0.02-0.29-0.05-0.43-0.08l0.03-4.43C40.74,48.1,40.88,48.12,41.03,48.15"/>
					<path class="st4" d="M40.59,48.07l-0.03,4.43c-0.05-0.01-0.1-0.02-0.15-0.03l0.03-4.43C40.5,48.05,40.54,48.06,40.59,48.07"/>
				</g>
			</g>
			<g>
				<path class="st39" d="M76.3,12.33c2.66,0.59,3.89,2.01,2.73,3.16L47.38,47.01c-1.16,1.16-4.27,1.61-6.93,1.03L5.24,40.25
					c-2.67-0.59-3.9-2.01-2.74-3.16L34.14,5.56c1.16-1.16,4.27-1.61,6.94-1.02L76.3,12.33z M46.48,46.81l31.64-31.52
					c0.93-0.93-0.08-2.06-2.24-2.54L40.66,4.96c-2.17-0.48-4.68-0.12-5.61,0.81L3.41,37.29c-0.93,0.93,0.08,2.06,2.25,2.54
					l35.21,7.79C43.03,48.1,45.55,47.74,46.48,46.81"/>
			</g>
		</g>
	</g>
</g>
</svg>
